<svg width="382" height="268" viewBox="0 0 382 268" fill="none" xmlns="http://www.w3.org/2000/svg">
<g clip-path="url(#clip0_1545_19959)">
<rect width="382" height="268" fill="#F2F1E8"/>
<g clip-path="url(#clip1_1545_19959)">
<mask id="mask0_1545_19959" style="mask-type:luminance" maskUnits="userSpaceOnUse" x="-4" y="-3" width="390" height="281">
<path d="M385.812 -2.66992H-3.80078V277.35H385.812V-2.66992Z" fill="white"/>
</mask>
<g mask="url(#mask0_1545_19959)">
<path d="M361.261 71.2039L320.905 102.577L278.656 110.202L233.885 127.533L190.264 135.796L152.483 170.336L102.477 174.069L54.6939 198.342L16.9664 209.28L-3.80078 222.625V277.351H385.812V55.9678L361.261 71.2039Z" fill="#D0D7AC"/>
<path d="M-20.8672 233.593L16.3368 209.279L54.7015 198.341L102.483 174.069L152.488 170.335L190.269 135.794L234.517 125.452L278.657 110.201L320.905 102.575L361.262 71.202L402.881 45.375" stroke="#3E7B52" stroke-width="2.02921"/>
<path d="M191.006 82.7373C221.055 82.7373 245.415 107.185 245.415 137.341C245.415 167.498 221.055 191.945 191.006 191.945C160.958 191.945 136.598 167.498 136.598 137.341C136.598 107.185 160.958 82.7373 191.006 82.7373Z" fill="#0B3721"/>
<path d="M191.452 113.284C184.097 113.284 178.135 119.339 178.135 126.807V135.114H177.374C174.852 135.114 172.809 137.189 172.809 139.75V157.524C172.809 160.083 174.852 162.16 177.374 162.16H204.769C207.29 162.16 209.334 160.083 209.334 157.524V139.75C209.334 137.189 207.29 135.114 204.769 135.114V135.109H198.681V135.114H184.223V126.807C184.223 122.753 187.458 119.466 191.452 119.466C195.444 119.466 198.681 122.753 198.681 126.807V128.443C198.681 129.567 199.589 130.479 200.71 130.479H202.739C203.86 130.479 204.769 129.567 204.769 128.443V126.807C204.769 119.339 198.806 113.284 191.452 113.284Z" fill="white"/>
<path d="M193.606 150.911C195.122 150.02 196.142 148.355 196.142 146.448C196.142 143.603 193.871 141.297 191.069 141.297C188.268 141.297 185.996 143.603 185.996 146.448C185.996 148.355 187.017 150.02 188.533 150.911V155.206C188.533 156.059 189.214 156.752 190.055 156.752H192.084C192.925 156.752 193.606 156.059 193.606 155.206V150.911Z" fill="#0B3721"/>
</g>
</g>
</g>
<defs>
<clipPath id="clip0_1545_19959">
<rect width="382" height="268" fill="white"/>
</clipPath>
<clipPath id="clip1_1545_19959">
<rect width="389.63" height="280.02" fill="white" transform="translate(-3.80859 -2.66992)"/>
</clipPath>
</defs>
</svg>
