<svg width="382" height="268" viewBox="0 0 382 268" fill="none" xmlns="http://www.w3.org/2000/svg">
<g clip-path="url(#clip0_1545_19984)">
<rect width="382" height="268" fill="#F2F1E8"/>
<rect width="389.63" height="273.352" transform="translate(-3.80859 -2.67578)" fill="#F2F1E8"/>
<g clip-path="url(#clip1_1545_19984)">
<mask id="mask0_1545_19984" style="mask-type:luminance" maskUnits="userSpaceOnUse" x="0" y="-3" width="382" height="274">
<path d="M381.427 -2.67578H0.585938V270.054H381.427V-2.67578Z" fill="white"/>
</mask>
<g mask="url(#mask0_1545_19984)">
<path d="M41.0508 72.2655C41.0508 66.3505 45.8467 61.5547 51.7619 61.5547H330.252C336.167 61.5547 340.963 66.3505 340.963 72.2655V115.109C340.963 121.024 336.167 125.82 330.252 125.82H51.7619C45.8467 125.82 41.0508 121.024 41.0508 115.109V72.2655Z" fill="#0B3721"/>
<path d="M41.0508 151.605C41.0508 145.69 45.8467 140.895 51.7619 140.895H330.252C336.167 140.895 340.963 145.69 340.963 151.605V194.449C340.963 200.365 336.167 205.16 330.252 205.16H51.7619C45.8467 205.16 41.0508 200.365 41.0508 194.449V151.605Z" fill="#3E7B52"/>
<path d="M92.5521 95.4435C92.6324 97.0661 93.741 97.8695 95.3155 97.8695C96.633 97.8695 97.6773 97.275 97.6773 95.9736C97.6773 94.6401 96.5527 94.3991 95.1067 93.9654C93.2108 93.387 91.2988 92.8086 91.2507 90.5914C91.2185 88.3904 93.1144 87.2979 95.187 87.2979C97.4845 87.2979 99.043 88.4225 99.2519 90.8003H97.5006C97.2917 89.4186 96.6009 88.7438 95.1709 88.7438C93.9659 88.7438 92.9859 89.2419 92.9859 90.5272C92.9859 91.6357 94.0463 92.0695 95.5405 92.5033C97.4685 93.0656 99.4125 93.5155 99.4125 95.9415C99.4125 98.2872 97.4042 99.3154 95.3155 99.3154C92.8091 99.3154 90.8972 98.0944 90.8008 95.4435H92.5521ZM101.462 87.571H103.197V99.0423H101.462V87.571ZM109.436 93.146C110.995 93.146 111.943 92.3909 111.943 91.0734C111.943 89.756 111.075 89.0169 109.517 89.0169H107.46V93.146H109.436ZM105.725 99.0423V87.571H109.677C112.071 87.571 113.678 89.0651 113.678 91.0734C113.678 93.0978 111.927 94.608 109.597 94.608H107.46V99.0423H105.725ZM125.986 95.588C125.504 97.5963 123.656 99.2512 120.748 99.2512C117.069 99.2512 114.916 96.6324 114.916 93.3066C114.916 90.0131 117.085 87.3621 120.764 87.3621C123.64 87.3621 125.279 88.8723 125.986 91.0252H124.251C123.64 89.6114 122.58 88.8241 120.764 88.8241C118.113 88.8241 116.651 90.8646 116.651 93.3066C116.651 95.7487 118.097 97.7891 120.764 97.7891C122.644 97.7891 123.801 96.8734 124.267 95.588H125.986ZM133.409 89.2901H131.674V87.571H133.409V89.2901ZM131.641 90.736H133.296V99.0423H131.641V90.736ZM135.559 99.0423V90.736H137.198V92.2463C137.632 91.2984 138.403 90.5272 139.688 90.5272C141.857 90.5272 142.677 91.9571 142.677 93.7565V99.0423H141.038V94.0296C141.038 92.6479 140.508 91.941 139.367 91.941C138.178 91.941 137.214 92.9532 137.214 95.0739V99.0423H135.559ZM149.294 93.2263C149.198 92.2302 148.379 91.8446 147.575 91.8446C146.82 91.8446 146.113 92.2784 146.113 92.921C146.113 93.5316 146.692 93.885 147.463 94.0778C147.848 94.1742 148.202 94.2545 148.571 94.3509C149.873 94.6883 151.03 95.3149 151.03 96.6645C151.03 98.3675 149.294 99.2512 147.688 99.2512C146.145 99.2512 144.41 98.5442 144.249 96.5199H145.888C146.065 97.4999 146.675 97.9177 147.72 97.9177C148.523 97.9177 149.391 97.6285 149.391 96.7609C149.391 96.07 148.732 95.8451 147.993 95.6523C147.607 95.5559 147.206 95.4595 146.82 95.3471C145.535 95.0257 144.49 94.2706 144.49 92.9853C144.49 91.443 146.033 90.5272 147.623 90.5272C149.326 90.5272 150.724 91.4269 150.901 93.2263H149.294ZM152.602 96.0218V90.736H154.241V95.7487C154.241 97.1304 154.771 97.8373 155.912 97.8373C157.101 97.8373 158.065 96.8252 158.065 94.7044V90.736H159.72V99.0423H158.081V97.5321C157.647 98.48 156.876 99.2512 155.591 99.2512C153.422 99.2512 152.602 97.8213 152.602 96.0218ZM163.511 90.736V92.3427C163.945 91.1538 164.78 90.6878 166.001 90.6878V92.2463C165.921 92.2463 165.551 92.2623 165.31 92.3266C164.427 92.4712 163.527 92.905 163.527 95.1864V99.0423H161.872V90.736H163.511ZM167.044 93.2584C167.236 91.9892 168.297 90.5111 170.466 90.5111C173.374 90.5111 173.888 92.3266 173.888 93.869V97.2429C173.888 97.8695 173.936 98.5924 174.017 99.0423H172.297C172.265 98.6888 172.265 98.3514 172.265 97.9498V97.5963H172.249C172.008 98.2551 171.317 99.2512 169.55 99.2512C167.622 99.2512 166.642 98.0301 166.642 96.777C166.642 94.4473 169.534 94.3188 170.755 94.11C171.831 93.9332 172.249 93.6762 172.249 92.9853C172.249 92.2945 171.607 91.8446 170.498 91.8446C169.55 91.8446 168.843 92.3909 168.65 93.2584H167.044ZM168.281 96.7448C168.281 97.4678 168.923 97.9498 169.92 97.9498C171.108 97.9498 172.281 97.1947 172.281 95.1864V94.1742C172.105 94.6723 171.703 95.1382 170.112 95.4113C168.939 95.6362 168.281 95.9736 168.281 96.7448ZM175.967 99.0423V90.736H177.606V92.2463C178.039 91.2984 178.811 90.5272 180.096 90.5272C182.265 90.5272 183.084 91.9571 183.084 93.7565V99.0423H181.446V94.0296C181.446 92.6479 180.915 91.941 179.775 91.941C178.586 91.941 177.622 92.9532 177.622 95.0739V99.0423H175.967ZM192.724 96.4235C192.29 98.2229 190.972 99.2512 188.964 99.2512C186.425 99.2512 184.658 97.4678 184.658 94.8972C184.658 92.3105 186.425 90.5272 188.964 90.5272C191.053 90.5272 192.322 91.7 192.659 93.3066H191.053C190.747 92.5194 190.153 91.8607 188.932 91.8607C187.325 91.8607 186.297 93.1942 186.297 94.8972C186.297 96.5842 187.325 97.9016 188.932 97.9016C190.04 97.9016 190.763 97.3875 191.101 96.4235H192.724ZM201.863 96.5842C201.397 98.3033 199.983 99.2512 198.071 99.2512C195.597 99.2512 193.942 97.4678 193.942 94.849C193.942 92.3427 195.677 90.5272 198.055 90.5272C200.931 90.5272 201.975 92.7925 201.991 95.0418V95.3471H195.533C195.661 96.9376 196.657 97.9016 198.055 97.9016C199.083 97.9016 199.951 97.4999 200.24 96.5842H201.863ZM195.549 94.11H200.353C200.224 92.7925 199.485 91.8446 198.055 91.8446C196.641 91.8446 195.741 92.7604 195.549 94.11Z" fill="white"/>
<path d="M91.3477 178.382V166.911H98.4973V168.373H93.0829V171.843H98.0475V173.289H93.0829V178.382H91.3477ZM103.694 166.911C107.518 166.911 109.655 169.08 109.655 172.47C109.655 175.892 107.518 178.382 103.774 178.382H100.208V166.911H103.694ZM101.943 176.92H103.807C106.12 176.92 107.92 175.41 107.92 172.47C107.92 169.658 106.12 168.373 103.758 168.373H101.943V176.92ZM111.562 166.911H113.297V178.382H111.562V166.911ZM126.269 174.928C125.787 176.936 123.939 178.591 121.031 178.591C117.352 178.591 115.199 175.972 115.199 172.647C115.199 169.353 117.368 166.702 121.047 166.702C123.923 166.702 125.562 168.212 126.269 170.365H124.533C123.923 168.951 122.863 168.164 121.047 168.164C118.396 168.164 116.934 170.205 116.934 172.647C116.934 175.089 118.38 177.129 121.047 177.129C122.927 177.129 124.084 176.213 124.55 174.928H126.269ZM133.691 168.63H131.956V166.911H133.691V168.63ZM131.924 170.076H133.579V178.382H131.924V170.076ZM135.842 178.382V170.076H137.481V171.586C137.914 170.638 138.686 169.867 139.971 169.867C142.14 169.867 142.959 171.297 142.959 173.097V178.382H141.321V173.37C141.321 171.988 140.79 171.281 139.65 171.281C138.461 171.281 137.497 172.293 137.497 174.414V178.382H135.842ZM149.578 172.566C149.482 171.57 148.662 171.185 147.859 171.185C147.104 171.185 146.397 171.618 146.397 172.261C146.397 172.872 146.975 173.225 147.746 173.418C148.132 173.514 148.485 173.595 148.855 173.691C150.156 174.028 151.313 174.655 151.313 176.005C151.313 177.708 149.578 178.591 147.971 178.591C146.429 178.591 144.694 177.884 144.533 175.86H146.172C146.348 176.84 146.959 177.258 148.003 177.258C148.807 177.258 149.674 176.968 149.674 176.101C149.674 175.41 149.016 175.185 148.277 174.992C147.891 174.896 147.489 174.8 147.104 174.687C145.818 174.366 144.774 173.611 144.774 172.325C144.774 170.783 146.316 169.867 147.907 169.867C149.61 169.867 151.008 170.767 151.185 172.566H149.578ZM152.885 175.362V170.076H154.524V175.089C154.524 176.47 155.054 177.177 156.195 177.177C157.384 177.177 158.348 176.165 158.348 174.044V170.076H160.003V178.382H158.364V176.872C157.93 177.82 157.159 178.591 155.873 178.591C153.704 178.591 152.885 177.161 152.885 175.362ZM163.793 170.076V171.683C164.227 170.494 165.063 170.028 166.284 170.028V171.586C166.203 171.586 165.834 171.602 165.593 171.667C164.709 171.811 163.809 172.245 163.809 174.526V178.382H162.155V170.076H163.793ZM167.326 172.598C167.519 171.329 168.579 169.851 170.748 169.851C173.657 169.851 174.171 171.667 174.171 173.209V176.583C174.171 177.209 174.219 177.932 174.299 178.382H172.58C172.548 178.029 172.548 177.691 172.548 177.29V176.936H172.532C172.291 177.595 171.6 178.591 169.833 178.591C167.905 178.591 166.925 177.37 166.925 176.117C166.925 173.787 169.817 173.659 171.038 173.45C172.114 173.273 172.532 173.016 172.532 172.325C172.532 171.634 171.889 171.185 170.781 171.185C169.833 171.185 169.126 171.731 168.933 172.598H167.326ZM168.563 176.085C168.563 176.808 169.206 177.29 170.202 177.29C171.391 177.29 172.564 176.535 172.564 174.526V173.514C172.387 174.012 171.986 174.478 170.395 174.751C169.222 174.976 168.563 175.314 168.563 176.085ZM176.25 178.382V170.076H177.889V171.586C178.323 170.638 179.094 169.867 180.38 169.867C182.549 169.867 183.368 171.297 183.368 173.097V178.382H181.729V173.37C181.729 171.988 181.199 171.281 180.058 171.281C178.869 171.281 177.905 172.293 177.905 174.414V178.382H176.25ZM193.006 175.764C192.572 177.563 191.255 178.591 189.247 178.591C186.708 178.591 184.941 176.808 184.941 174.237C184.941 171.651 186.708 169.867 189.247 169.867C191.335 169.867 192.605 171.04 192.942 172.647H191.335C191.03 171.859 190.436 171.201 189.215 171.201C187.608 171.201 186.58 172.534 186.58 174.237C186.58 175.924 187.608 177.242 189.215 177.242C190.323 177.242 191.046 176.728 191.384 175.764H193.006ZM202.146 175.924C201.68 177.643 200.266 178.591 198.354 178.591C195.88 178.591 194.225 176.808 194.225 174.189C194.225 171.683 195.96 169.867 198.338 169.867C201.214 169.867 202.258 172.133 202.274 174.382V174.687H195.815C195.944 176.278 196.94 177.242 198.338 177.242C199.366 177.242 200.234 176.84 200.523 175.924H202.146ZM195.831 173.45H200.635C200.507 172.133 199.768 171.185 198.338 171.185C196.924 171.185 196.024 172.1 195.831 173.45Z" fill="white"/>
<path d="M62.6914 174.267L64.6997 176.276L69.3876 171.588" stroke="white" stroke-width="1.33888" stroke-linecap="round" stroke-linejoin="round"/>
<path d="M58.744 166.815H73.3056V172.368V172.914C73.3056 176.601 71.1705 179.953 67.8314 181.514L66.2729 182.242C66.1158 182.316 65.9337 182.316 65.7766 182.242L64.2164 181.513C60.8772 179.952 58.7422 176.601 58.7422 172.915V172.368L58.744 166.815Z" stroke="white" stroke-width="1.33888" stroke-linecap="round" stroke-linejoin="round"/>
<path d="M62.6914 94.4813L64.6997 96.4896L69.3876 91.8018" stroke="white" stroke-width="1.33888" stroke-linecap="round" stroke-linejoin="round"/>
<path d="M58.744 87.0293H73.3056V92.5821V93.1283C73.3056 96.8147 71.1705 100.167 67.8314 101.727L66.2729 102.456C66.1158 102.53 65.9337 102.53 65.7766 102.456L64.2164 101.727C60.8772 100.166 58.7422 96.8147 58.7422 93.1292V92.5821L58.744 87.0293Z" stroke="white" stroke-width="1.33888" stroke-linecap="round" stroke-linejoin="round"/>
<path d="M296.432 84.4504C296.33 84.3879 296.214 84.3719 296.097 84.3719C295.815 84.4888 295.557 84.5906 295.316 84.7548C294.636 85.293 294.379 86.1678 294.261 86.988C294.223 87.4093 294.402 87.7842 294.48 88.1663C294.582 88.8071 294.917 89.3061 295.316 89.7979L295.432 89.8372C295.457 89.7979 295.409 89.7354 295.409 89.681C295.027 88.9473 294.574 88.1663 294.691 87.2299C294.809 87.0264 295.074 86.847 295.011 86.5891H294.972C294.855 86.7926 294.753 87.0264 294.574 87.1282C294.753 86.847 294.777 86.4721 294.832 86.1285C294.894 86.0276 294.988 86.1678 295.034 86.191L295.097 86.1133C295.136 86.0901 295.199 86.074 295.215 86.1133C295.253 86.3704 295.253 86.6283 295.191 86.855C295.269 86.7926 295.308 86.6988 295.347 86.6132C295.449 86.3945 295.324 86.1758 295.347 85.9571C295.488 85.8402 295.526 85.6599 295.628 85.5197C295.988 85.3796 295.769 85.9027 295.948 85.9964C296.026 85.8786 296.049 85.7384 296.128 85.6135C296.011 85.5117 295.909 85.3555 295.792 85.2778C295.574 85.1216 295.511 85.4805 295.332 85.4965C295.074 85.559 295.09 85.8321 294.949 85.9723C294.847 85.8946 294.871 85.7536 294.886 85.6367C294.909 85.4573 295.105 85.4341 295.222 85.3403C295.425 85.2618 295.464 85.0431 295.542 84.8798C295.62 84.8565 295.722 84.8798 295.761 84.9574C296.057 84.919 295.98 85.2778 296.198 85.3796C296.455 85.4028 296.534 85.6215 296.76 85.6991C296.916 85.4965 296.58 85.418 296.557 85.2234C296.409 84.9735 296.651 84.653 296.432 84.4504ZM296.315 85.6527C296.214 85.7152 296.159 85.8714 296.097 85.9883C296.12 86.0276 296.159 86.0116 296.198 86.0116C296.355 85.9491 296.33 85.7697 296.315 85.6527ZM296.729 85.8089C296.346 85.7072 296.448 86.191 296.292 86.3704C296.23 86.4096 296.174 86.4721 296.112 86.4096C296.073 86.332 296.112 86.2534 296.089 86.207C296.065 86.3088 295.972 86.3088 295.909 86.3472C295.932 86.4257 296.026 86.3864 296.065 86.4257C296.245 86.7845 295.988 87.1434 295.807 87.4406L295.784 87.6985C295.901 88.1591 296.182 88.5331 296.323 88.9553C296.299 88.5724 296.042 88.2992 296.042 87.9163C295.964 87.5182 296.362 87.4406 296.463 87.1362C296.503 86.9952 296.424 86.7533 296.62 86.7381C296.659 86.6364 296.643 86.4802 296.643 86.4016C296.542 86.5194 296.307 86.6051 296.401 86.8238C296.338 87.0657 296.299 87.4638 295.98 87.5031C295.901 87.4799 295.917 87.4013 295.917 87.3469C296.097 87.2299 296.214 86.9639 296.174 86.7301C296.198 86.4329 296.573 86.2927 296.534 85.9491C296.573 85.8473 296.69 85.8473 296.729 85.8089ZM295.675 86.5891C295.698 86.4721 295.714 86.3088 295.597 86.2534C295.659 86.5114 295.495 86.6908 295.457 86.8943C295.574 86.847 295.651 86.7069 295.675 86.5891ZM295.894 86.8077C295.917 86.7845 295.932 86.7069 295.87 86.7069C295.769 86.8631 295.69 87.0264 295.55 87.1433C295.449 87.2844 295.488 87.5031 295.432 87.6593C295.472 87.6985 295.457 87.7601 295.511 87.8155C295.589 87.8931 295.651 88.0341 295.714 88.1511C295.753 88.5099 296.011 88.7679 296.049 89.1267C296.073 89.2677 296.026 89.4239 296.128 89.5489C296.167 89.431 296.205 89.2677 296.167 89.1267C296.128 88.9865 296.089 88.8303 296.026 88.6893C295.988 88.4474 295.886 88.1511 295.714 87.9476C295.582 87.7842 295.62 87.6744 295.582 87.495C295.651 87.2683 295.815 87.0425 295.894 86.8077ZM295.152 87.9404C295.074 87.6985 295.215 87.362 294.972 87.2058C294.871 87.3237 294.894 87.5423 294.894 87.7057C294.894 88.3073 295.215 88.783 295.409 89.2829C295.488 89.3998 295.511 89.6033 295.628 89.7051C295.659 89.6738 295.73 89.3846 295.589 89.2436C295.432 88.7991 295.152 88.4242 295.152 87.9404ZM295.378 87.7217C295.363 87.5968 295.401 87.5031 295.3 87.4638C295.238 87.7057 295.246 87.9949 295.324 88.2448C295.409 88.526 295.644 89.0642 295.839 89.4623C295.901 89.6185 295.878 89.8452 295.863 90.0014C295.901 89.9229 295.964 89.8452 295.98 89.7595C295.917 89.4391 295.901 89.0642 295.738 88.7598C295.613 88.401 295.425 88.1743 295.378 87.7217ZM297.049 87.7217C296.986 87.6432 296.932 87.5423 296.846 87.4799C296.667 87.7762 296.549 88.135 296.667 88.4787C296.846 88.4394 296.768 88.2216 296.846 88.1198C296.87 87.9404 297.088 87.9012 297.049 87.7217ZM296.534 88.4787C296.276 88.1975 296.455 87.8226 296.534 87.5423L296.253 87.7601C296.174 88.0574 296.276 88.3769 296.495 88.5804C296.549 88.5804 296.534 88.5179 296.534 88.4787ZM297.526 88.6036C297.463 88.3617 297.502 88.0261 297.228 87.9636C297.128 88.0806 296.986 88.0886 297.026 88.2528C297.072 88.2912 297.111 88.5411 297.252 88.4867C297.369 88.5099 297.393 88.6268 297.432 88.7054C297.486 88.7446 297.526 88.6581 297.526 88.6036ZM297.151 89.556C296.947 89.5801 296.971 89.3534 296.893 89.2365C296.83 89.3927 296.87 89.556 296.893 89.7122C296.955 89.7354 296.995 89.6497 297.072 89.6497C297.213 89.689 297.111 89.8684 297.135 89.947C297.174 89.9229 297.197 89.8845 297.213 89.8452C297.494 89.7283 297.353 90.1032 297.494 90.204C297.611 90.1808 297.557 90.0246 297.651 89.9621C297.689 89.9229 297.767 89.9389 297.767 89.8845C297.744 89.7667 297.666 89.6033 297.526 89.7051C297.369 89.7202 297.33 89.5176 297.151 89.556ZM297.01 90.3763C296.947 90.2745 296.893 90.1183 296.753 90.0559C296.69 90.1183 296.612 90.1576 296.596 90.2594C296.659 90.2977 296.659 90.3995 296.753 90.4147C296.83 90.4147 296.971 90.4932 297.01 90.3763ZM297.658 89.3373C297.682 89.2989 297.572 88.9473 297.619 88.908C297.634 88.9392 297.651 88.9553 297.651 88.9553C297.651 88.9553 297.634 88.908 297.619 88.908C297.557 88.783 297.401 89.0258 297.236 88.9241C297.197 88.8535 297.096 88.916 297.026 88.9321C297.003 88.9946 297.026 89.049 297.057 89.1035L297.08 89.1427L297.19 89.0803C297.268 89.0097 297.307 89.0803 297.307 89.1427C297.307 89.2677 297.268 89.2748 297.346 89.3614C297.353 89.3454 297.494 89.2284 297.51 89.1811C297.502 89.174 297.603 89.4159 297.658 89.3373ZM301.656 85.551L301.297 85.036C301 84.6611 300.656 84.3174 300.243 84.1612C300.086 84.0987 299.891 83.9818 299.704 84.1612C299.345 84.5129 299.626 84.903 299.501 85.2546C299.36 85.4965 299.118 85.6911 298.822 85.6759C298.681 85.5983 298.58 85.4573 298.399 85.4965C298.283 85.6367 298.064 85.4733 297.978 85.6759C297.9 85.7152 297.822 85.6991 297.759 85.6367C297.658 85.5358 297.603 85.6991 297.541 85.7384C297.385 85.8786 297.182 85.6367 297.026 85.8009C296.729 86.1597 296.885 86.7613 296.986 87.1987C297.088 87.5575 297.424 87.7762 297.705 87.9949C297.767 88.0966 297.626 88.1511 297.666 88.2912C297.728 88.5331 297.807 88.8303 298.103 88.8535C298.041 88.5331 297.924 88.0725 298.22 87.8387C298.283 87.8155 298.322 87.7994 298.361 87.8619C298.384 88.0413 298.205 88.1823 298.244 88.3769C298.283 88.5956 298.244 88.916 298.54 88.9392C298.603 88.8616 298.58 88.7598 298.657 88.6973C298.736 88.6741 298.774 88.7205 298.814 88.7759C298.891 88.8535 298.915 88.7366 298.954 88.6741C298.993 88.6509 299.072 88.6349 299.11 88.6973C299.172 88.7598 299.29 88.7598 299.329 88.6581C299.251 88.276 299.149 87.9012 298.728 87.7842C298.611 87.745 298.689 87.5807 298.751 87.5655C298.611 87.4093 298.532 87.6825 298.392 87.5655C298.33 87.4245 298.549 87.4245 298.572 87.3076C298.712 87.2451 298.853 87.4245 298.931 87.2299C298.993 87.2058 299.009 87.2683 299.009 87.3076C298.985 87.4245 298.947 87.5263 298.829 87.5887C298.907 87.6905 299.047 87.6664 299.11 87.7914C299.313 87.8538 299.353 88.1118 299.493 88.2528C299.47 88.3153 299.493 88.393 299.555 88.393L299.657 88.1511C299.774 88.01 299.758 87.8155 299.914 87.7289C299.953 87.7057 299.977 87.7914 299.993 87.8074L299.774 88.3466C299.774 88.3849 299.735 88.4635 299.797 88.4867C299.837 88.3466 299.977 88.2287 299.938 88.0654C300.016 87.9636 300.118 87.8467 300.094 87.6825C299.891 87.62 299.758 87.4638 299.672 87.2612C299.633 87.1201 299.649 86.9639 299.571 86.839C299.43 86.8631 299.29 86.8158 299.188 86.7381C299.087 86.5971 298.985 86.3784 298.766 86.3552C298.743 86.332 298.728 86.2775 298.79 86.2534C298.993 86.2151 299.228 86.191 299.407 86.0508C299.727 85.7697 299.766 85.3323 299.727 84.911C299.704 84.653 300.008 84.8092 300.063 84.6298C300.141 84.5906 300.203 84.5906 300.266 84.6691C300.383 85.0511 300.96 84.8485 301.125 85.2305C301.148 85.3484 300.968 85.293 300.922 85.3091C300.96 85.4492 301.141 85.5278 301.125 85.7072C301.085 85.7697 301.023 85.8241 300.945 85.8089C300.726 85.6527 300.664 85.3867 300.547 85.1681H300.485C300.406 85.426 300.687 85.567 300.781 85.7848L300.742 85.8634C300.664 85.9027 300.586 85.8402 300.524 85.8009C300.406 85.559 300.125 85.3635 300.227 85.0672C300.203 85.0047 300.164 84.9654 300.11 84.9654C300.008 84.9654 299.969 85.0431 299.993 85.1449C300.195 85.4421 300.25 85.8241 300.593 86.0035C300.695 86.0821 300.656 86.2463 300.618 86.324C300.578 86.5426 300.695 86.7221 300.835 86.839C300.875 86.839 300.937 86.8631 300.914 86.7765C300.797 86.5739 300.734 86.3784 300.758 86.1365C300.758 86.0348 300.875 85.9339 300.937 85.9803C300.898 86.2222 300.96 86.4409 301.016 86.6596C301.016 86.6988 301.078 86.7381 301.116 86.6988C301.078 86.5194 301 86.3159 301.078 86.1365C301.141 86.0972 301.195 86.0196 301.281 86.0348C301.203 86.191 301.203 86.4177 301.203 86.6132C301.226 86.7301 301.32 86.8318 301.445 86.855C301.664 86.6132 301.304 86.3552 301.445 86.0348C301.507 85.9723 301.468 85.8554 301.585 85.8161C301.648 85.8161 301.664 85.8786 301.664 85.9339C301.546 86.1133 301.546 86.4329 301.664 86.6132C301.781 86.6908 301.804 86.972 301.96 86.855C302.039 86.4096 301.874 85.9259 301.656 85.551ZM300.383 86.191V86.1133L300.001 85.7304C300.024 85.9723 300.219 86.1053 300.383 86.191ZM300.118 86.3472L299.899 86.1445C299.899 86.1053 299.837 86.0035 299.797 86.066C299.735 86.207 299.914 86.2847 300.001 86.3864C300.063 86.4257 300.102 86.3864 300.118 86.3472ZM299.883 86.5507C299.727 86.4882 299.704 86.3088 299.563 86.2534C299.539 86.3159 299.587 86.3945 299.641 86.4329C299.72 86.5114 299.797 86.6756 299.899 86.6756C299.938 86.6283 299.922 86.5658 299.883 86.5507ZM299.626 86.6828C299.508 86.5819 299.422 86.3632 299.266 86.4257C299.29 86.6051 299.485 86.6283 299.563 86.7221C299.602 86.7453 299.641 86.7069 299.626 86.6828ZM300.742 87.105C300.586 86.9488 300.445 86.7069 300.383 86.4641C300.32 86.5426 300.343 86.7069 300.406 86.8006C300.422 86.988 300.601 87.0264 300.742 87.105ZM300.32 87.1282L300.219 86.972C300.203 87.0425 300.258 87.1433 300.32 87.1282ZM300.859 88.4394C301.062 87.9788 301.078 87.4638 301.179 86.9639L301.062 87.105C300.766 87.487 300.804 88.0181 300.641 88.4787C300.578 88.8384 300.32 89.1579 300.078 89.4551C300.055 89.5176 299.977 89.6578 300.102 89.6738C300.399 89.2989 300.578 88.8616 300.859 88.4394ZM300.219 87.4013C300.078 87.2844 300.016 87.105 299.922 86.98L299.899 87.0577C299.899 87.2139 299.977 87.3156 300.102 87.3933C300.141 87.4245 300.203 87.4486 300.219 87.4013ZM301.952 87.2844C301.914 87.1433 301.773 87.0809 301.671 87.0425C301.671 87.5031 301.57 87.9012 301.414 88.2992C301.257 88.8767 300.875 89.4391 300.539 89.9541L300.516 90.0559C300.718 89.9934 300.797 89.814 300.976 89.7202C301.437 88.9785 301.897 88.1823 301.952 87.2844ZM301.437 87.6048C301.476 87.487 301.515 87.2683 301.398 87.2058C301.218 87.4638 301.156 87.8074 301.141 88.143L300.984 88.5643C300.781 88.7679 300.742 89.041 300.562 89.2597C300.5 89.3614 300.406 89.3766 300.383 89.4783C300.343 89.5953 300.227 89.7202 300.243 89.814C300.305 89.7908 300.266 89.8532 300.305 89.8764C300.422 89.8532 300.422 89.7202 300.524 89.697C300.883 89.0178 301.335 88.3849 301.437 87.6048ZM300.641 87.4013C300.461 87.4799 300.437 87.7369 300.36 87.9163C300.336 88.1743 300.422 88.5179 300.219 88.6973V87.9636L300.18 87.9404C300.063 88.0966 300.078 88.3225 299.922 88.4787C299.766 88.7205 299.845 89.0803 299.985 89.3141C300.125 89.2365 300.227 89.0562 300.266 88.916C300.445 88.7366 300.468 88.5179 300.524 88.2992C300.641 88.0413 300.656 87.7217 300.641 87.4013ZM299.602 89.1579C299.563 89.0562 299.462 88.7991 299.321 89.0017C299.064 89.1035 298.759 89.1186 298.501 89.2204C298.501 89.3766 298.58 89.5016 298.705 89.6033C298.705 89.6658 298.728 89.681 298.782 89.681C298.922 89.681 298.884 89.5016 298.922 89.4239C299.064 89.2677 299.064 89.6033 299.243 89.5408C299.282 89.4239 299.204 89.2436 299.36 89.1811C299.438 89.2204 299.462 89.3373 299.516 89.3846C299.602 89.3373 299.579 89.2365 299.602 89.1579ZM299.883 89.814C299.82 89.7354 299.82 89.6113 299.727 89.6113C299.61 89.814 299.368 89.5872 299.266 89.7908C299.149 89.9309 298.829 89.9309 298.868 90.1264H299.266C299.345 90.1656 299.446 90.1888 299.485 90.0871C299.563 89.9702 299.641 90.1264 299.743 90.0871C299.758 89.9934 299.845 89.9157 299.883 89.814ZM299.626 90.4539C299.446 90.5164 299.345 90.337 299.188 90.3138C299.149 90.3531 299.149 90.4147 299.149 90.4539C299.126 90.5557 298.697 90.7039 298.736 90.7824C298.954 90.7199 299.563 90.6494 299.704 90.4932L299.626 90.4539ZM297.361 84.1773C297.361 84.1773 297.689 84.122 297.751 84.271C298.017 84.9342 297.151 84.9887 297.174 85.5046C297.33 85.5278 297.557 85.5822 297.651 85.4028L297.932 85.5046C298.072 85.4805 298.087 85.2234 298.267 85.3243C298.345 85.2618 298.447 85.2466 298.524 85.2859C298.626 85.2466 298.603 85.1056 298.564 85.0279C298.424 85.1056 298.228 85.1297 298.049 85.1681C298.009 85.1449 297.908 85.0672 297.97 85.0119C298.189 85.0904 298.189 84.7548 298.431 84.8717C298.549 84.8092 298.587 84.653 298.572 84.5129C298.532 84.1773 298.478 83.8881 298.08 83.8024C298.049 83.7944 298.017 83.7944 297.963 83.8256C297.963 83.8336 297.947 83.8649 297.994 83.872C298.049 83.8881 298.057 83.9506 298.009 83.9818C297.932 84.0363 297.799 83.997 297.759 83.9586C297.744 83.9345 297.713 83.9193 297.658 83.9274C297.557 83.9345 297.393 83.9658 297.361 84.1773ZM296.222 90.5637C296.205 90.5013 296.261 90.4075 296.471 90.1728C296.721 89.8916 296.753 89.3846 296.799 89.1035C296.853 88.7518 297.072 88.5099 297.072 88.5099C297.072 88.5099 296.698 88.6268 296.526 89.1579C296.393 89.556 296.276 90.337 295.932 90.3683C295.909 90.3683 295.886 90.3763 295.87 90.3843C295.667 90.337 295.511 90.2665 295.37 90.1183C295.37 90.1183 295.261 90.0014 295.222 89.9782C294.519 89.174 294.059 88.0886 294.02 86.9639C294.199 85.8241 294.66 84.5754 295.847 84.1925C296.089 84.1461 296.315 84.0523 296.557 84.1773C296.853 84.3879 296.807 84.8325 296.822 85.1449C296.83 85.1609 296.901 85.2073 296.901 85.2073C297.135 85.0119 297.385 84.8012 297.564 84.5049C297.557 84.4424 297.478 84.3719 297.401 84.3487C297.338 84.3487 297.276 84.3799 297.221 84.3879C297.151 84.3951 297.088 84.3638 297.088 84.2549C297.065 84.0675 297.252 83.8176 297.33 83.8024C297.674 83.7551 297.9 83.4507 298.274 83.6614C298.478 83.7399 298.657 83.8881 298.743 84.0907C298.884 84.4968 298.822 84.919 298.86 85.3323C298.876 85.3948 298.922 85.418 299.001 85.418C299.274 85.3323 299.29 85.0984 299.274 84.8253C299.259 84.5825 299.212 84.2549 299.422 84.0675C299.641 83.8881 299.868 83.7158 300.266 83.8649C300.851 84.0907 301.289 84.645 301.648 85.1056C301.929 85.5046 302.132 85.9259 302.233 86.4096C302.312 87.3156 302.116 88.1118 301.773 88.8535C301.515 89.4551 301.172 89.9541 300.649 90.337C300.524 90.3995 300.383 90.4227 300.25 90.3763C300.25 90.3763 300.094 90.2201 300.024 90.204C300.024 90.2513 300.187 90.4147 300.203 90.4459C300.25 90.5164 300.289 90.595 300.266 90.6887L300.219 90.7351C300.156 90.7896 300.118 90.7663 300.07 90.7663C300.039 90.7663 299.985 90.7663 299.907 90.7744C299.422 90.8208 299.337 90.8449 299.032 90.8993C298.837 90.9226 298.595 90.9618 298.399 91.0163C298.291 91.0163 298.274 90.8993 298.314 90.8288C298.33 90.7039 298.416 90.6494 298.493 90.6021L298.556 90.5637C298.611 90.5245 298.657 90.4852 298.673 90.4147C298.689 90.0478 298.501 89.7979 298.376 89.4703C298.376 89.4703 298.174 88.8303 297.853 88.9865C297.814 89.0874 297.892 89.3534 297.892 89.3534C297.876 89.681 297.947 89.9621 298.072 90.2745C298.072 90.3138 298.095 90.5245 298.049 90.5709C297.908 90.6414 297.83 90.6494 297.705 90.6726C297.658 90.6807 297.603 90.6807 297.307 90.7119C296.721 90.8449 296.214 90.7351 296.222 90.5637ZM298.642 86.6051C298.54 86.8077 298.283 86.6051 298.142 86.7613C298.041 86.7845 297.986 86.7381 297.939 86.6828V86.6051C298.057 86.6051 298.181 86.5819 298.259 86.5034C298.337 86.4802 298.439 86.6051 298.54 86.5034C298.603 86.4641 298.58 86.3632 298.657 86.324C298.782 86.3864 298.689 86.5266 298.642 86.6051ZM299.321 87.5263C299.297 87.6825 299.579 87.6432 299.501 87.8074C299.384 87.8699 299.297 87.745 299.243 87.6664C299.18 87.5495 299.141 87.3469 299.18 87.2451C299.407 87.2219 299.243 87.4245 299.321 87.5263ZM299.782 87.5423C299.782 87.5807 299.845 87.6593 299.758 87.6825C299.657 87.7217 299.539 87.6593 299.462 87.5807C299.345 87.4245 299.282 87.1826 299.384 86.9639C299.422 86.9015 299.485 86.9639 299.501 87.0032C299.579 87.1433 299.462 87.3388 299.602 87.4638L299.782 87.5423ZM298.907 87.0032C298.868 87.0657 298.829 87.1594 298.728 87.1433C298.392 87.0425 298.431 87.5423 298.087 87.4799C297.97 87.4406 297.767 87.5423 297.728 87.3388C297.767 87.2371 297.947 87.2996 298.025 87.2371C298.087 87.2612 298.166 87.2763 298.228 87.2763C298.33 87.1987 298.189 87.0969 298.291 87.0345C298.407 87.0969 298.509 86.972 298.587 86.9175C298.705 86.9568 298.829 86.9407 298.884 86.8158C298.947 86.8238 298.922 86.9488 298.907 87.0032Z" fill="white"/>
<path d="M293.752 84.6059V90.6345C293.652 90.7362 293.652 90.6577 293.627 90.5247C293.479 89.6035 293.402 88.0504 292.004 86.7928C288.881 83.9901 285.071 85.2084 285.844 88.6511C286.82 93.023 293.699 90.6255 294.597 96.3175C295.549 102.337 290.045 104.234 285.664 101.962C285.664 101.962 284.532 101.253 284.087 101.432C283.892 101.511 283.767 101.909 283.736 102.338C283.72 102.963 283.548 102.774 283.556 102.719V96.2783C283.564 96.1613 283.658 96.1926 283.658 96.2319C283.768 103.375 291.521 104.281 291.365 100.135C291.185 95.2322 283.589 96.505 282.885 91.469C282.027 85.2852 288.241 83.5447 291.856 86.2233C292.574 86.7544 293.237 85.9413 293.347 85.769C293.589 85.4102 293.511 85.0585 293.604 84.5908C293.652 84.4185 293.752 84.4729 293.752 84.6059ZM329.3 90.68C329.34 91.1254 329.098 91.0156 329.098 91.0156C329.683 86.3938 320.408 80.9678 319.814 92.8115C319.283 103.281 326.552 105.342 329.394 98.1911C329.425 98.0893 329.605 97.5591 329.613 97.5118C329.644 97.3244 329.675 97.5431 329.644 97.7537C328.036 106.913 312.609 103.867 316.146 90.4925C316.989 87.3149 321.104 84.2623 324.406 85.1763C326.374 85.7226 326.124 86.0118 327.318 86.6357C328.653 87.339 328.997 85.7065 329.161 84.8719C329.309 84.7854 329.3 85.0746 329.3 85.0746V90.68ZM311.21 87.1587C310.5 86.0742 309.36 85.4262 308.025 85.5271C307.845 85.52 307.854 85.6288 307.854 85.6288V94.1316C307.854 94.311 308.025 94.311 308.025 94.311C309.516 94.4279 310.796 93.5229 311.507 92.2349C312.358 90.705 312.085 88.5021 311.21 87.1587ZM315.473 88.6351C315.84 90.7737 315.396 92.4839 314.318 93.4523C312.437 94.9742 310.367 94.5136 308.119 94.5993C307.837 94.5841 307.861 94.9278 307.861 94.9278V102.736H303.286V85.6369C303.317 85.3013 302.661 85.395 302.255 85.3789C302.06 85.3557 302.153 85.2084 302.247 85.1924C304.02 85.2316 309.36 85.0272 312.342 85.644C313.888 85.9493 315.176 86.9097 315.473 88.6351ZM301.022 91.6484V102.727C300.374 102.735 296.337 102.727 296.337 102.727V92.0938C296.337 92.0938 296.361 91.6957 296.095 91.6886C295.556 91.6654 294.823 91.6092 294.823 91.6092C294.73 91.602 294.636 91.4842 294.823 91.469H300.756C301.037 91.469 301.022 91.6484 301.022 91.6484Z" fill="white"/>
<path d="M291.014 182.427H286.016V164.027H296.296V168.837H291.014V171.815H295.992V176.625H291.014V182.427Z" fill="white"/>
<path d="M312.712 173.218C312.712 164.791 305.152 164.027 302.023 164.027H296.984V182.409H302.023L302.015 177.618V168.761C305.115 168.761 307.749 169.907 307.749 173.19C307.749 176.473 305.115 177.618 302.015 177.618L302.023 182.409C305.917 182.41 312.712 181.664 312.712 173.218Z" fill="white"/>
<path d="M318.577 163.988H313.578V182.427H318.577V163.988Z" fill="white"/>
<path d="M328.784 177.56C326.382 177.56 324.395 175.603 324.395 173.204C324.395 170.804 326.382 168.848 328.784 168.848C330.973 168.848 332.117 170.012 332.872 171.545V164.944C332.872 164.944 330.657 163.951 328.594 163.951C324.014 163.951 319.051 168.164 319.051 173.204C319.051 179.373 323.785 182.456 328.594 182.456C330.656 182.456 332.872 181.465 332.872 181.465V174.92C331.969 176.476 330.961 177.56 328.784 177.56Z" fill="white"/>
<path d="M328.865 170.657C327.454 170.657 326.31 171.8 326.31 173.211C326.31 174.623 327.454 175.766 328.865 175.766C330.276 175.766 331.419 174.623 331.419 173.211C331.419 171.8 330.276 170.657 328.865 170.657ZM326.16 173.211C326.16 171.718 327.371 170.507 328.865 170.507C330.358 170.507 331.569 171.718 331.569 173.211C331.569 174.705 330.358 175.916 328.865 175.916C327.371 175.916 326.16 174.705 326.16 173.211Z" fill="white"/>
<path d="M328.837 169.499C326.781 169.499 325.114 171.166 325.114 173.222C325.114 175.277 326.781 176.945 328.837 176.945C330.893 176.945 332.56 175.277 332.56 173.222C332.56 171.166 330.893 169.499 328.837 169.499ZM324.965 173.222C324.965 171.083 326.698 169.35 328.837 169.35C330.976 169.35 332.709 171.083 332.709 173.222C332.709 175.36 330.976 177.094 328.837 177.094C326.698 177.094 324.965 175.36 324.965 173.222Z" fill="white"/>
<path d="M327.974 171.055V171.553H327.865V171.173H327.824L327.873 171.055H327.974Z" fill="white"/>
<path d="M328.223 171.208C328.223 171.311 328.317 171.395 328.434 171.395C328.482 171.395 328.525 171.381 328.562 171.358C328.496 171.525 328.322 171.458 328.285 171.445L328.239 171.535C328.296 171.592 328.676 171.63 328.676 171.265C328.676 171.224 328.645 171.023 328.434 171.023V171.112C328.496 171.112 328.556 171.155 328.556 171.208C328.556 171.262 328.495 171.304 328.434 171.304C328.374 171.304 328.324 171.262 328.324 171.208C328.324 171.155 328.374 171.112 328.434 171.112V171.023C328.317 171.023 328.223 171.106 328.223 171.208Z" fill="white"/>
<path d="M329.01 171.575C328.896 171.575 328.83 171.526 328.812 171.503L328.878 171.438C328.907 171.455 328.959 171.487 328.995 171.487C329.03 171.487 329.098 171.472 329.098 171.416C329.098 171.387 329.072 171.342 328.967 171.356V171.269C329.078 171.278 329.103 171.239 329.103 171.202C329.103 171.166 329.062 171.136 329.013 171.136C328.974 171.136 328.936 171.159 328.903 171.195L328.83 171.122C328.863 171.071 328.93 171.038 329.009 171.038C329.119 171.038 329.2 171.106 329.2 171.19C329.2 171.234 329.181 171.275 329.141 171.302C329.184 171.327 329.203 171.382 329.203 171.416C329.203 171.499 329.13 171.575 329.01 171.575Z" fill="white"/>
<path d="M329.549 171.575C329.435 171.575 329.369 171.526 329.352 171.503L329.418 171.438C329.447 171.455 329.499 171.487 329.535 171.487C329.571 171.487 329.637 171.472 329.637 171.416C329.637 171.387 329.613 171.342 329.507 171.356V171.269C329.617 171.278 329.644 171.239 329.644 171.202C329.644 171.166 329.604 171.136 329.553 171.136C329.515 171.136 329.477 171.159 329.444 171.195L329.371 171.122C329.404 171.071 329.472 171.038 329.549 171.038C329.659 171.038 329.741 171.106 329.741 171.19C329.741 171.234 329.723 171.275 329.683 171.302C329.725 171.327 329.744 171.382 329.744 171.416C329.744 171.499 329.669 171.575 329.549 171.575Z" fill="white"/>
<path d="M327.968 174.813V174.539H327.914V174.866H328.093V174.74H328.181V174.866H328.359V174.539H328.441C328.538 174.539 328.538 174.589 328.602 174.589C328.651 174.589 328.667 174.539 328.703 174.539C328.738 174.539 328.749 174.6 328.794 174.6C328.84 174.6 328.851 174.539 328.886 174.539C328.921 174.539 328.938 174.589 328.987 174.589C329.051 174.589 329.07 174.539 329.168 174.539C329.223 174.539 329.255 174.563 329.255 174.625C329.255 174.733 329.342 174.82 329.449 174.82C329.557 174.82 329.644 174.733 329.644 174.625V174.347C329.644 174.239 329.557 174.152 329.449 174.152L329.451 174.22C329.514 174.22 329.566 174.272 329.566 174.335C329.566 174.439 329.523 174.485 329.523 174.485C329.523 174.485 329.566 174.533 329.566 174.637C329.566 174.7 329.514 174.753 329.451 174.753C329.387 174.753 329.334 174.7 329.334 174.637C329.334 174.533 329.377 174.485 329.377 174.485C329.377 174.485 329.334 174.439 329.334 174.335C329.334 174.272 329.387 174.22 329.451 174.22L329.449 174.152C329.342 174.152 329.256 174.24 329.256 174.347C329.256 174.409 329.223 174.434 329.168 174.434C329.07 174.434 329.052 174.382 328.987 174.382C328.938 174.382 328.922 174.43 328.887 174.43C328.851 174.43 328.841 174.37 328.795 174.37C328.749 174.37 328.738 174.43 328.703 174.43C328.668 174.43 328.651 174.382 328.603 174.382C328.538 174.382 328.538 174.434 328.441 174.434H327.832V174.539H327.914H327.968H328.306V174.813H328.235V174.687H328.039V174.813H327.968Z" fill="white"/>
<path d="M328.14 169.807L328.44 170.324C328.396 170.328 328.352 170.337 328.307 170.347L328.254 170.252L328.088 170.29L328.099 170.162L328.188 170.141L328.112 170.01L328.099 170.162L328.088 170.29L328.079 170.398C328.035 170.407 327.99 170.421 327.949 170.435L327.997 169.839L328.14 169.807Z" fill="white"/>
<path d="M331.271 170.813L331.101 170.962C331.081 170.981 331.078 171.013 331.097 171.034L331.22 171.177L331.147 171.241L330.989 171.062L330.898 171.141L331.091 171.36C331.116 171.387 331.158 171.39 331.186 171.366L331.353 171.222C331.374 171.203 331.378 171.172 331.359 171.15L331.232 171.008L331.306 170.942L331.467 171.125L331.563 171.046L331.363 170.819C331.338 170.792 331.298 170.789 331.271 170.813Z" fill="white"/>
<path d="M326.214 171.933C326.197 171.968 326.179 172.004 326.163 172.041L325.66 171.791L325.818 171.474L325.928 171.53L325.824 171.739L325.91 171.782L325.998 171.603L326.109 171.66L326.021 171.837L326.214 171.933Z" fill="white"/>
<path d="M331.116 170.586C331.15 170.613 331.154 170.66 331.128 170.692L330.866 171.012C330.839 171.044 330.792 171.049 330.758 171.022C330.71 170.984 330.668 170.941 330.657 170.932C330.644 170.923 330.601 170.891 330.556 170.856C330.522 170.831 330.518 170.78 330.544 170.748L330.806 170.429C330.832 170.397 330.881 170.392 330.914 170.419L330.873 170.54L330.669 170.787L330.806 170.899L331.008 170.651L330.873 170.54L330.914 170.419L331.116 170.586Z" fill="white"/>
<path d="M327.593 170.339L327.483 170.388L327.434 170.276L327.553 170.222C327.568 170.215 327.576 170.197 327.568 170.182L327.553 170.148C327.546 170.133 327.529 170.126 327.514 170.133L327.393 170.188L327.434 170.276L327.483 170.388L327.571 170.585C327.527 170.605 327.491 170.622 327.456 170.641L327.227 170.13L327.559 169.98C327.585 169.968 327.617 169.98 327.629 170.006L327.704 170.175C327.715 170.2 327.704 170.23 327.679 170.24C327.678 170.241 327.677 170.243 327.678 170.244C327.678 170.246 327.68 170.246 327.682 170.246C327.707 170.235 327.736 170.246 327.747 170.271C327.762 170.305 327.808 170.407 327.811 170.416C327.816 170.427 327.825 170.455 327.86 170.451L327.864 170.46C327.822 170.475 327.778 170.493 327.733 170.512C327.716 170.506 327.704 170.494 327.696 170.475C327.688 170.459 327.662 170.387 327.651 170.362C327.642 170.339 327.615 170.329 327.593 170.339Z" fill="white"/>
<path d="M328.899 170.297L328.897 170.175L328.67 170.183L328.653 169.744L328.535 169.749L328.556 170.308C328.676 170.298 328.788 170.295 328.899 170.297Z" fill="white"/>
<path d="M326.471 171.3L326.569 171.373C326.5 171.46 326.434 171.55 326.368 171.652L325.91 171.326L326.115 171.038L326.215 171.111L326.08 171.3L326.159 171.356L326.273 171.194L326.373 171.267L326.257 171.427L326.339 171.487L326.471 171.3Z" fill="white"/>
<path d="M326.647 171.283L326.246 170.881L326.301 170.826L326.417 170.881L326.641 171.109L326.766 170.984L326.54 170.757L326.417 170.881L326.301 170.826L326.487 170.641C326.517 170.611 326.565 170.612 326.594 170.642L326.885 170.934C326.915 170.965 326.914 171.013 326.883 171.042C326.841 171.085 326.794 171.125 326.783 171.134C326.774 171.145 326.686 171.241 326.647 171.283Z" fill="white"/>
<path d="M327.262 170.613L327.33 170.715C327.235 170.774 327.143 170.836 327.045 170.907L326.727 170.447L327.018 170.245L327.084 170.348L326.895 170.48L326.95 170.559L327.112 170.446L327.181 170.549L327.018 170.661L327.076 170.743L327.262 170.613Z" fill="white"/>
<path d="M329.145 170.31L329.243 169.75L329.317 169.763L329.341 169.888L329.284 170.203L329.457 170.235L329.512 169.92L329.341 169.888L329.317 169.763L329.577 169.808C329.618 169.816 329.646 169.854 329.64 169.896L329.566 170.302C329.559 170.344 329.519 170.371 329.477 170.364C329.418 170.353 329.36 170.338 329.344 170.336C329.329 170.334 329.201 170.317 329.145 170.31Z" fill="white"/>
<path d="M330.053 170.43L330.009 170.543C329.907 170.498 329.802 170.459 329.688 170.421L329.884 169.896L330.216 170.019L330.171 170.133L329.953 170.054L329.92 170.143L330.105 170.212L330.061 170.326L329.876 170.257L329.84 170.35L330.053 170.43Z" fill="white"/>
<path d="M330.316 170.448L330.377 170.338L330.495 170.404C330.51 170.412 330.528 170.407 330.536 170.392L330.555 170.359C330.562 170.344 330.557 170.326 330.542 170.318L330.426 170.251L330.377 170.338L330.316 170.448L330.208 170.637C330.164 170.614 330.129 170.596 330.094 170.577L330.373 170.08L330.696 170.262C330.722 170.276 330.731 170.309 330.716 170.335L330.596 170.548C330.584 170.571 330.553 170.58 330.529 170.567L330.316 170.448Z" fill="white"/>
<path d="M331.223 171.533L331.686 171.221L331.751 171.32L331.288 171.631C331.277 171.615 331.266 171.597 331.254 171.581C331.244 171.565 331.232 171.548 331.223 171.533Z" fill="white"/>
<path d="M331.847 171.734L331.456 171.934C331.448 171.915 331.439 171.898 331.43 171.881C331.42 171.863 331.412 171.846 331.402 171.829L331.792 171.628L331.737 171.518L331.845 171.463L332.009 171.786L331.901 171.841L331.847 171.734Z" fill="white"/>
<path d="M325.706 172.225L325.7 172.375L325.841 172.431L325.695 172.473L325.684 172.623L325.6 172.498L325.453 172.534L325.546 172.415L325.467 172.288L325.608 172.34L325.706 172.225Z" fill="white"/>
<path d="M331.963 172.225L331.967 172.375L331.828 172.431L331.972 172.473L331.983 172.623L332.068 172.498L332.214 172.534L332.122 172.415L332.201 172.288L332.059 172.34L331.963 172.225Z" fill="white"/>
<path d="M327.542 176.283L327.528 176.315L327.369 176.241L327.501 175.95L327.66 176.024L327.646 176.055L327.755 176.107L327.789 176.028C327.806 175.991 327.789 175.946 327.752 175.927C327.697 175.903 327.639 175.88 327.627 175.874C327.613 175.867 327.564 175.847 327.512 175.82C327.476 175.801 327.428 175.818 327.411 175.857L327.241 176.232C327.224 176.27 327.241 176.316 327.278 176.333L327.519 176.441C327.557 176.46 327.602 176.443 327.619 176.405L327.652 176.334L327.542 176.283Z" fill="white"/>
<path d="M325.925 173.093L325.367 173.057L325.374 172.939L325.933 172.975C325.93 172.995 325.93 173.015 325.929 173.036C325.928 173.055 325.926 173.074 325.925 173.093Z" fill="white"/>
<path d="M325.902 173.789L325.683 173.846C325.657 173.853 325.64 173.882 325.647 173.909L325.695 174.093L325.599 174.117L325.538 173.884L325.422 173.915L325.497 174.199C325.508 174.234 325.543 174.255 325.578 174.245L325.792 174.193C325.821 174.186 325.838 174.157 325.831 174.13L325.782 173.945L325.876 173.921L325.938 174.157L326.057 174.127L325.98 173.836C325.973 173.801 325.938 173.78 325.902 173.789Z" fill="white"/>
<path d="M325.619 173.597L325.94 173.565C325.942 173.584 325.944 173.604 325.946 173.625C325.948 173.645 325.951 173.664 325.954 173.683L325.396 173.737L325.384 173.619L325.713 173.369L325.362 173.378L325.359 173.26L325.919 173.244C325.919 173.264 325.919 173.285 325.92 173.305C325.921 173.324 325.921 173.343 325.921 173.364L325.619 173.597Z" fill="white"/>
<path d="M325.721 174.743C325.738 174.781 325.783 174.799 325.821 174.782L326.267 174.59L326.219 174.479L325.818 174.655L325.749 174.493L326.148 174.32L326.1 174.208L325.657 174.401C325.618 174.419 325.598 174.464 325.616 174.503L325.721 174.743Z" fill="white"/>
<path d="M326.304 175.616L326.4 175.564L326.515 175.502L326.65 175.431L326.578 175.566L326.515 175.502L326.4 175.564L326.52 175.681L326.469 175.78L326.566 175.875L326.835 175.347L326.731 175.243L326.207 175.522L326.304 175.616Z" fill="white"/>
<path d="M326.539 175.014C326.556 175.038 326.55 175.071 326.525 175.087L326.373 175.192C326.351 175.208 326.318 175.202 326.304 175.18C326.303 175.178 326.3 175.178 326.3 175.179C326.298 175.18 326.297 175.182 326.299 175.183C326.315 175.205 326.309 175.236 326.287 175.251C326.254 175.273 326.162 175.336 326.153 175.341C326.144 175.348 326.117 175.363 326.13 175.395L326.123 175.399L326.044 175.283C326.047 175.265 326.059 175.25 326.075 175.239C326.092 175.227 326.155 175.19 326.179 175.174C326.199 175.16 326.204 175.133 326.192 175.111L326.123 175.013L326.223 174.944L326.3 175.053C326.308 175.066 326.327 175.069 326.341 175.06L326.372 175.04C326.385 175.031 326.389 175.011 326.38 174.999L326.304 174.89L326.223 174.944L326.123 175.013L325.944 175.136L325.871 175.032L326.332 174.715C326.392 174.812 326.467 174.926 326.539 175.014Z" fill="white"/>
<path d="M328.174 176.19L328.206 176.073C328.097 176.047 327.99 176.017 327.875 175.979L327.719 176.518L328.059 176.616L328.091 176.498L327.868 176.433L327.895 176.341L328.086 176.396L328.119 176.278L327.929 176.223L327.956 176.128L328.174 176.19Z" fill="white"/>
<path d="M327.092 175.95L327.272 175.681C327.288 175.692 327.305 175.702 327.322 175.714C327.338 175.725 327.353 175.736 327.37 175.748L327.06 176.21L326.961 176.145L326.975 175.733L326.761 176.01L326.668 175.939L327.01 175.496C327.024 175.509 327.039 175.521 327.054 175.533C327.071 175.545 327.087 175.555 327.103 175.568L327.092 175.95Z" fill="white"/>
<path d="M329.151 176.689C329.109 176.696 329.07 176.666 329.065 176.625L329.009 176.216C329.002 176.174 329.032 176.135 329.074 176.129C329.134 176.121 329.193 176.118 329.209 176.116C329.224 176.115 329.277 176.105 329.333 176.095C329.375 176.087 329.414 176.118 329.42 176.16L329.476 176.567C329.483 176.609 329.454 176.648 329.411 176.654L329.351 176.54L329.308 176.224L329.134 176.248L329.177 176.565L329.351 176.54L329.411 176.654L329.151 176.689Z" fill="white"/>
<path d="M330.374 175.703C330.4 175.69 330.432 175.699 330.446 175.726L330.561 175.941C330.573 175.965 330.564 175.995 330.54 176.009L330.324 176.124L330.266 176.013L330.384 175.949C330.399 175.94 330.404 175.924 330.397 175.909L330.379 175.875C330.372 175.861 330.353 175.855 330.339 175.862L330.219 175.926L330.266 176.013L330.324 176.124L330.431 176.318C330.388 176.343 330.349 176.359 330.316 176.379L330.047 175.877C330.121 175.843 330.283 175.759 330.374 175.703Z" fill="white"/>
<path d="M332.006 174.652L331.603 174.478L331.554 174.59L331.441 174.542C331.49 174.452 331.55 174.31 331.585 174.207L331.698 174.257L331.649 174.369L332.052 174.542L332.006 174.652Z" fill="white"/>
<path d="M328.803 176.546L328.802 176.582L328.627 176.574L328.639 176.255L328.815 176.262L328.813 176.296L328.932 176.3L328.934 176.217C328.936 176.175 328.903 176.14 328.86 176.138C328.8 176.135 328.741 176.135 328.724 176.135C328.711 176.134 328.655 176.134 328.599 176.128C328.557 176.125 328.521 176.16 328.519 176.202L328.504 176.614C328.502 176.656 328.535 176.691 328.576 176.692L328.84 176.703C328.882 176.705 328.918 176.672 328.919 176.63L328.923 176.551L328.803 176.546Z" fill="white"/>
<path d="M329.872 175.949C329.9 175.94 329.93 175.955 329.938 175.984L329.993 176.161C330.001 176.187 329.987 176.215 329.961 176.223C329.959 176.224 329.958 176.225 329.96 176.226C329.96 176.228 329.962 176.229 329.963 176.228C329.989 176.22 330.016 176.234 330.026 176.261C330.036 176.298 330.069 176.405 330.071 176.415C330.076 176.425 330.081 176.454 330.114 176.453L330.118 176.459L329.981 176.501C329.965 176.493 329.955 176.478 329.949 176.459C329.943 176.441 329.926 176.367 329.918 176.34C329.91 176.317 329.885 176.304 329.862 176.311L329.748 176.346L329.711 176.23L329.838 176.19C329.853 176.184 329.862 176.168 329.856 176.153L329.845 176.118C329.839 176.102 329.823 176.093 329.808 176.098L329.681 176.138L329.711 176.23L329.748 176.346L329.812 176.555L329.69 176.592L329.523 176.057C329.636 176.026 329.768 175.992 329.872 175.949Z" fill="white"/>
<path d="M330.903 176.026C330.87 176.053 330.822 176.047 330.796 176.015L330.537 175.694C330.51 175.662 330.515 175.613 330.548 175.586C330.595 175.548 330.644 175.514 330.657 175.505C330.669 175.496 330.709 175.46 330.75 175.422C330.783 175.393 330.833 175.401 330.86 175.434L331.118 175.753C331.146 175.786 331.14 175.834 331.106 175.861L330.997 175.796L330.796 175.546L330.659 175.657L330.861 175.905L330.997 175.796L331.106 175.861L330.903 176.026Z" fill="white"/>
<path d="M331.139 175.02C331.159 174.998 331.192 174.996 331.214 175.016L331.353 175.137C331.373 175.156 331.375 175.187 331.356 175.207C331.355 175.208 331.355 175.211 331.356 175.211C331.358 175.214 331.36 175.214 331.362 175.211C331.38 175.191 331.411 175.189 331.43 175.207C331.46 175.233 331.543 175.307 331.55 175.315C331.559 175.321 331.579 175.343 331.608 175.324L331.613 175.33L331.52 175.435C331.502 175.437 331.484 175.428 331.47 175.415C331.456 175.402 331.404 175.35 331.382 175.33C331.363 175.315 331.335 175.315 331.319 175.334L331.239 175.423L331.147 175.342L331.235 175.242C331.247 175.23 331.246 175.211 331.233 175.2L331.205 175.175C331.193 175.165 331.173 175.166 331.163 175.179L331.075 175.278L331.147 175.342L331.239 175.423L331.402 175.567L331.316 175.664L330.898 175.292C330.979 175.208 331.072 175.11 331.139 175.02Z" fill="white"/>
<path d="M331.738 175.165L331.665 175.082L331.581 174.984L331.481 174.867L331.628 174.905L331.581 174.984L331.665 175.082L331.754 174.938L331.861 174.967L331.933 174.851L331.357 174.705L331.281 174.828L331.667 175.28L331.738 175.165Z" fill="white"/>
<path d="M331.652 174.002L332.188 174.163L332.154 174.277L331.617 174.115C331.624 174.097 331.63 174.078 331.635 174.058C331.642 174.039 331.648 174.021 331.652 174.002Z" fill="white"/>
<path d="M332.079 173.037L331.755 173.05C331.755 173.032 331.753 173.01 331.753 172.991C331.752 172.971 331.751 172.95 331.75 172.931L332.31 172.912L332.313 173.031L331.971 173.26L332.321 173.272L332.318 173.391L331.757 173.372C331.758 173.352 331.759 173.333 331.76 173.312C331.76 173.292 331.762 173.274 331.762 173.254L332.079 173.037Z" fill="white"/>
<path d="M332.259 173.904C332.252 173.946 332.214 173.974 332.172 173.968L331.764 173.905C331.723 173.898 331.693 173.86 331.7 173.818C331.709 173.758 331.723 173.699 331.725 173.684C331.727 173.671 331.734 173.615 331.739 173.559C331.744 173.517 331.785 173.489 331.827 173.495L332.232 173.557C332.274 173.563 332.304 173.602 332.297 173.644L332.171 173.671L331.855 173.622L331.83 173.796L332.146 173.843L332.171 173.671L332.297 173.644L332.259 173.904Z" fill="white"/>
<path d="M328.011 172.049L327.812 172.823H327.86L328.003 172.276V172.823H328.056V172.276L328.197 172.823H327.812C327.843 172.914 327.948 172.963 328.028 172.963C328.106 172.963 328.211 172.914 328.241 172.823L328.044 172.049H328.011Z" fill="white"/>
<path d="M328.833 171.706L328.925 171.748L328.916 171.764C328.872 171.764 328.863 171.848 328.863 171.889C328.863 171.913 328.886 171.946 328.928 171.946C328.969 171.946 329.043 171.91 329.145 171.91C329.246 171.91 329.354 171.951 329.464 171.951C329.576 171.951 329.601 171.92 329.628 171.92C329.656 171.92 329.712 171.932 329.712 171.972C329.712 172.012 329.656 172.026 329.628 172.026C329.6 172.026 329.575 171.994 329.464 171.994C329.354 171.994 329.246 172.037 329.145 172.037C329.043 172.037 328.969 171.999 328.928 171.999C328.886 171.999 328.863 172.033 328.863 172.056C328.863 172.08 328.914 172.127 328.914 172.127L328.832 172.251L328.753 172.127C328.753 172.127 328.802 172.08 328.802 172.056C328.802 172.033 328.78 171.999 328.738 171.999C328.696 171.999 328.622 172.037 328.521 172.037C328.418 172.037 328.312 171.994 328.201 171.994C328.091 171.994 328.065 172.026 328.037 172.026C328.008 172.026 327.953 172.012 327.953 171.972C327.953 171.933 328.008 171.92 328.037 171.92C328.065 171.92 328.091 171.951 328.201 171.951C328.312 171.951 328.418 171.91 328.521 171.91C328.622 171.91 328.696 171.946 328.738 171.946C328.78 171.946 328.802 171.913 328.802 171.889C328.802 171.848 328.793 171.764 328.748 171.764L328.739 171.748L328.833 171.706Z" fill="white"/>
<path d="M329.657 172.049L329.856 172.823H329.807L329.666 172.276V172.823H329.611V172.276L329.47 172.823H329.856C329.824 172.914 329.719 172.963 329.641 172.963C329.562 172.963 329.456 172.914 329.426 172.823L329.625 172.049H329.657Z" fill="white"/>
<path d="M328.834 172.596L330.509 174.234C330.516 174.217 330.511 174.177 330.502 174.132L328.834 172.499L327.167 174.132C327.157 174.177 327.153 174.217 327.16 174.234L328.834 172.596Z" fill="white"/>
<path d="M328.831 173.332L330.17 174.642L330.206 174.582L328.831 173.235L327.457 174.582L327.493 174.642L328.831 173.332Z" fill="white"/>
<path d="M330.813 172.087C330.903 172.124 331.046 172.287 330.955 172.377C330.624 172.259 330.521 172.549 330.521 172.712C330.521 173.09 330.805 173.284 330.805 173.954C330.805 174.165 330.752 174.983 329.638 175.24C329.466 175.28 329.085 175.381 328.836 175.612V175.543C329.109 175.29 329.634 175.2 329.72 175.174C330.136 175.049 330.762 174.707 330.762 173.939C330.762 173.467 330.568 173.097 330.386 173.097C330.31 173.097 330.334 173.191 330.377 173.254C330.403 173.291 330.432 173.354 330.363 173.34C330.293 173.326 330.201 173.35 330.201 173.411C330.201 173.442 330.24 173.442 330.262 173.43C330.284 173.418 330.311 173.409 330.349 173.409C330.427 173.409 330.509 173.458 330.509 173.514C330.509 173.569 330.404 173.546 330.404 173.591C330.404 173.62 330.658 173.801 330.658 174.013C330.658 174.081 330.63 174.055 330.614 174.013C330.598 173.972 330.554 173.916 330.512 173.916C330.471 173.916 330.448 173.932 330.466 173.966C330.484 174.002 330.554 174.108 330.554 174.256C330.554 174.405 330.445 174.599 330.373 174.687C330.339 174.73 330.326 174.703 330.32 174.687C330.313 174.671 330.297 174.62 330.262 174.62C330.202 174.62 330.238 174.906 329.578 175.082C329.446 175.118 329.112 175.201 328.835 175.413C328.557 175.202 328.223 175.118 328.092 175.082C327.432 174.906 327.47 174.62 327.41 174.62C327.374 174.62 327.357 174.671 327.35 174.687C327.344 174.703 327.333 174.73 327.297 174.687C327.226 174.599 327.117 174.405 327.117 174.256C327.117 174.108 327.185 174.001 327.205 173.966C327.223 173.932 327.199 173.916 327.158 173.916C327.116 173.916 327.074 173.972 327.058 174.013C327.042 174.055 327.012 174.081 327.012 174.013C327.012 173.801 327.268 173.62 327.268 173.591C327.268 173.546 327.161 173.569 327.161 173.514C327.161 173.458 327.244 173.409 327.32 173.409C327.36 173.409 327.388 173.418 327.408 173.43C327.429 173.442 327.469 173.442 327.469 173.411C327.469 173.349 327.377 173.326 327.307 173.34C327.238 173.354 327.267 173.292 327.293 173.254C327.336 173.191 327.361 173.097 327.284 173.097C327.104 173.097 326.908 173.467 326.908 173.939C326.908 174.707 327.533 175.049 327.95 175.174C328.036 175.2 328.561 175.29 328.835 175.543V175.612C328.585 175.381 328.204 175.28 328.03 175.24C326.916 174.982 326.862 174.165 326.862 173.954C326.862 173.284 327.147 173.09 327.147 172.712C327.147 172.55 327.043 172.259 326.712 172.377C326.622 172.287 326.767 172.123 326.857 172.087C326.839 172.005 327.116 171.648 327.565 171.648C327.855 171.648 328.08 171.788 328.389 171.788C328.506 171.788 328.717 171.734 328.835 171.661V171.724C328.717 171.797 328.506 171.851 328.389 171.851C328.08 171.851 327.855 171.712 327.565 171.712C327.346 171.712 327.175 171.799 327.067 171.888C327.083 171.891 327.139 171.913 327.145 171.917C327.173 171.937 327.158 171.968 327.122 171.954C327.098 171.945 327.065 171.927 327.031 171.922C327.014 171.938 327 171.954 326.989 171.968C327.06 171.968 327.105 171.989 327.135 172.007C327.167 172.024 327.157 172.062 327.116 172.042C327.08 172.028 327.035 172.005 326.958 172.013C326.945 172.033 326.936 172.05 326.934 172.064L326.952 172.135C326.894 172.135 326.734 172.19 326.765 172.289C326.818 172.274 327.195 172.282 327.195 172.665C327.195 172.728 327.218 172.723 327.218 172.702C327.256 172.528 327.138 172.334 326.991 172.264C326.935 172.237 326.948 172.188 327.029 172.232C327.107 172.274 327.265 172.392 327.265 172.614C327.265 172.665 327.25 172.769 327.25 172.769C327.25 172.769 327.308 172.711 327.308 172.568C327.308 172.33 327.116 172.135 326.952 172.135L326.934 172.064C327.03 172.051 327.376 172.142 327.376 172.609C327.376 172.686 327.33 172.93 327.249 173.035C327.339 173.021 327.512 173.026 327.376 173.266C327.574 173.307 327.524 173.506 327.461 173.506C327.377 173.506 327.385 173.46 327.303 173.46C327.244 173.46 327.238 173.5 327.27 173.51C327.311 173.525 327.338 173.547 327.338 173.592C327.338 173.676 327.216 173.633 327.11 173.878C327.146 173.866 327.166 173.861 327.191 173.861C327.216 173.861 327.276 173.869 327.276 173.919C327.276 173.969 327.172 174.044 327.172 174.248C327.172 174.356 327.281 174.545 327.307 174.581C327.34 174.549 327.371 174.527 327.407 174.527C327.534 174.527 327.515 174.627 327.515 174.654C327.515 174.681 327.656 174.926 328.06 175.026C328.256 175.074 328.686 175.195 328.836 175.34C328.986 175.195 329.415 175.074 329.612 175.026C330.015 174.926 330.155 174.681 330.155 174.654C330.155 174.627 330.139 174.527 330.265 174.527C330.302 174.527 330.332 174.549 330.365 174.581C330.392 174.545 330.5 174.356 330.5 174.248C330.5 174.044 330.396 173.969 330.396 173.919C330.396 173.869 330.456 173.861 330.481 173.861C330.506 173.861 330.525 173.867 330.562 173.878C330.455 173.633 330.332 173.676 330.332 173.592C330.332 173.547 330.36 173.525 330.4 173.51C330.433 173.5 330.429 173.46 330.37 173.46C330.288 173.46 330.294 173.506 330.211 173.506C330.148 173.506 330.097 173.307 330.297 173.266C330.16 173.026 330.333 173.021 330.423 173.035C330.342 172.93 330.297 172.686 330.297 172.609C330.297 172.33 330.42 172.186 330.539 172.117C330.52 172.089 330.5 172.073 330.481 172.056C330.448 172.026 330.475 172.002 330.505 172.024C330.526 172.039 330.553 172.061 330.578 172.096C330.593 172.089 330.609 172.084 330.623 172.079C330.605 172.051 330.578 172.032 330.561 172.015C330.532 171.987 330.554 171.962 330.584 171.978C330.599 171.987 330.628 172.004 330.667 172.068C330.696 172.063 330.72 172.063 330.736 172.064L330.719 172.135C330.556 172.135 330.363 172.329 330.363 172.567C330.363 172.711 330.421 172.769 330.421 172.769C330.421 172.769 330.408 172.665 330.408 172.613C330.408 172.391 330.564 172.274 330.644 172.231C330.725 172.187 330.739 172.237 330.681 172.263C330.536 172.333 330.417 172.527 330.454 172.701C330.454 172.722 330.478 172.728 330.478 172.664C330.478 172.282 330.855 172.273 330.908 172.288C330.938 172.189 330.778 172.134 330.72 172.134L330.738 172.063C330.724 171.977 330.492 171.711 330.107 171.711C329.818 171.711 329.591 171.85 329.282 171.85C329.164 171.85 328.955 171.796 328.837 171.723V171.661C328.955 171.733 329.163 171.787 329.28 171.787C329.589 171.787 329.816 171.647 330.106 171.647C330.554 171.647 330.83 172.005 330.813 172.087Z" fill="white"/>
<path d="M328.835 173.167L330.281 174.583C330.398 174.676 330.481 174.382 330.504 174.3L328.835 172.663L327.164 174.3L327.342 174.408L327.344 174.323L327.294 174.255L327.376 174.23L327.423 174.162L327.473 174.23L327.579 174.179L327.58 174.094L327.53 174.027L327.61 174L327.66 173.932L327.708 174L327.814 173.948L327.815 173.864L327.765 173.798L327.846 173.773L327.895 173.702L327.944 173.773L328.05 173.719L328.05 173.634L328 173.567L328.081 173.542L328.131 173.473L328.18 173.542L328.285 173.49L328.287 173.406L328.237 173.336L328.317 173.311L328.365 173.244L328.415 173.311L328.522 173.259L328.523 173.175L328.473 173.108L328.553 173.083L328.602 173.013L328.65 173.083L328.757 173.03V172.946L328.707 172.878L328.789 172.851L328.838 172.784L328.887 172.851L328.968 172.878L328.916 172.946L328.918 173.03L328.941 173.108L329.022 173.083L329.072 173.013L329.119 173.083L329.2 173.108L329.15 173.175L329.151 173.259L329.258 173.311L329.307 173.244L329.356 173.311L329.436 173.336L329.385 173.406L329.387 173.49L329.495 173.542L329.543 173.473L329.591 173.542L329.672 173.567L329.623 173.634V173.719L329.729 173.773L329.778 173.702L329.828 173.773L329.908 173.798L329.858 173.864V173.948L329.965 174L330.012 173.932L330.06 174.002L330.141 174.027L330.089 174.094L330.092 174.179L330.197 174.232L330.246 174.164L330.296 174.232L330.376 174.257L330.326 174.323L330.326 174.41L330.246 174.382L330.166 174.41L330.167 174.323L330.116 174.257L330.197 174.232L330.092 174.179L330.011 174.152L329.931 174.179V174.094L329.881 174.027L329.961 174.002L329.854 173.95L329.776 173.923L329.695 173.95L329.696 173.865L329.645 173.798L329.727 173.773L329.62 173.719L329.539 173.692L329.46 173.719L329.461 173.636L329.41 173.567L329.491 173.542L329.384 173.491L329.304 173.463L329.225 173.491L329.226 173.406L329.175 173.338L329.256 173.313L329.15 173.261L329.069 173.233L328.989 173.261V173.176L328.939 173.108L328.915 173.03L328.835 173.003L328.755 173.03L328.648 173.083L328.731 173.108L328.68 173.176L328.681 173.261L328.6 173.233L328.519 173.261L328.412 173.313L328.495 173.338L328.443 173.406V173.491L328.365 173.463L328.284 173.491L328.18 173.542L328.258 173.567L328.207 173.636L328.208 173.719L328.13 173.692L328.05 173.719L327.942 173.773L328.023 173.798L327.973 173.865V173.95L327.894 173.923L327.812 173.95L327.708 174L327.789 174.027L327.738 174.094L327.739 174.179L327.66 174.152L327.579 174.179L327.473 174.23L327.553 174.257L327.503 174.323V174.41L327.423 174.382L327.342 174.41L327.164 174.3C327.188 174.382 327.272 174.676 327.388 174.583L328.835 173.167Z" fill="white"/>
<path d="M327.655 174.24C327.735 174.24 327.799 174.171 327.799 174.086C327.799 174.002 327.735 173.935 327.655 173.935C327.576 173.935 327.512 174.002 327.512 174.086C327.512 174.171 327.576 174.24 327.655 174.24Z" fill="white"/>
<path d="M328.131 173.779C328.211 173.779 328.274 173.71 328.274 173.625C328.274 173.541 328.211 173.474 328.131 173.474C328.052 173.474 327.988 173.541 327.988 173.625C327.988 173.71 328.052 173.779 328.131 173.779Z" fill="white"/>
<path d="M328.605 173.305C328.684 173.305 328.748 173.237 328.748 173.152C328.748 173.068 328.684 173 328.605 173C328.525 173 328.461 173.068 328.461 173.152C328.461 173.237 328.525 173.305 328.605 173.305Z" fill="white"/>
<path d="M329.066 173.305C329.145 173.305 329.209 173.237 329.209 173.152C329.209 173.068 329.145 173 329.066 173C328.986 173 328.922 173.068 328.922 173.152C328.922 173.237 328.986 173.305 329.066 173.305Z" fill="white"/>
<path d="M329.538 173.766C329.618 173.766 329.682 173.697 329.682 173.613C329.682 173.529 329.618 173.461 329.538 173.461C329.459 173.461 329.395 173.529 329.395 173.613C329.395 173.697 329.459 173.766 329.538 173.766Z" fill="white"/>
<path d="M329.999 174.24C330.079 174.24 330.143 174.171 330.143 174.086C330.143 174.002 330.079 173.935 329.999 173.935C329.92 173.935 329.855 174.002 329.855 174.086C329.855 174.171 329.92 174.24 329.999 174.24Z" fill="white"/>
</g>
</g>
</g>
<defs>
<clipPath id="clip0_1545_19984">
<rect width="382" height="268" fill="white"/>
</clipPath>
<clipPath id="clip1_1545_19984">
<rect width="389.63" height="272.73" fill="white" transform="translate(-3.80859 -2.67578)"/>
</clipPath>
</defs>
</svg>
