<svg width="112" height="44" viewBox="0 0 112 44" fill="none" xmlns="http://www.w3.org/2000/svg">
<g clip-path="url(#clip0_1545_20633)">
<g clip-path="url(#clip1_1545_20633)">
<path fill-rule="evenodd" clip-rule="evenodd" d="M6.67444 10.1935C6.4726 9.9355 6.08736 9.9355 5.88553 10.1935L0.109691 17.577C-0.0365633 17.764 -0.0365638 18.0289 0.109691 18.2159L6.27998 26.1036L12.3057 33.8065C12.5075 34.0645 12.8928 34.0645 13.0946 33.8065L18.8705 26.423C19.0167 26.2361 19.0167 25.9711 18.8705 25.7842L12.7002 17.8964H24.4948C24.917 17.8964 25.1523 17.4001 24.8894 17.064L19.5148 10.1935C19.3129 9.9355 18.9277 9.9355 18.7259 10.1935L12.7002 17.8964L6.67444 10.1935Z" fill="#2E2E27"/>
<path d="M33.6992 10H37.8401L43.9878 28.5067H44.0834L50.2629 10H54.4038L46.3131 32.7113L41.7262 32.7432L33.6992 10Z" fill="#2E2E27"/>
<path d="M68.377 27.8696C67.4214 31.2142 64.5865 33.1891 60.6686 33.1891C55.7313 33.1891 52.3867 29.6534 52.3867 24.4613C52.3867 19.4604 55.8906 15.8291 60.6686 15.8291C66.3066 15.8291 68.6 20.1611 68.6319 24.8435C68.6319 25.0028 68.6319 25.2576 68.6 25.5443H55.9224C56.2091 28.443 58.0566 30.2267 60.6686 30.2267C62.5479 30.2267 64.1406 29.4941 64.7139 27.8696H68.377ZM55.9543 22.9323H65.0006C64.7776 20.5752 63.4079 18.6959 60.6686 18.6959C58.0566 18.6959 56.3047 20.3841 55.9543 22.9323Z" fill="#2E2E27"/>
<path d="M79.629 21.2123C79.4379 19.3648 77.9726 18.6322 76.4755 18.6322C75.0103 18.6322 73.768 19.4604 73.768 20.6071C73.768 21.7538 74.7555 22.4227 76.4437 22.8368C77.1763 23.0279 77.9089 23.1872 78.6416 23.4101C81.3172 24.1109 83.4195 25.4169 83.4195 28.0289C83.4195 31.3097 80.1705 33.1891 76.6667 33.1891C73.3539 33.1891 70.073 31.6601 69.7227 27.7103H73.3539C73.6725 29.526 74.7873 30.3541 76.6985 30.3541C78.2593 30.3541 79.7883 29.7489 79.7883 28.22C79.7883 26.8821 78.5141 26.4362 77.1445 26.0858C76.3481 25.8947 75.5518 25.7036 74.7873 25.4806C72.1435 24.7798 70.2005 23.2827 70.2005 20.7345C70.2005 17.7403 73.1628 15.8291 76.5392 15.8291C80.0749 15.8291 82.7825 17.6447 83.1647 21.2123H79.629Z" fill="#2E2E27"/>
<path d="M89.9536 27.073C89.9536 28.8568 90.4632 29.8124 92.0559 29.8124H93.1389V32.7747L91.3551 32.8066C87.5646 32.8384 86.3223 30.5769 86.3223 27.519V19.1416H83.7422V16.2748H86.3223V12.5161L89.9536 10.8916V16.2748H93.1707V19.1416H89.9536V27.073Z" fill="#2E2E27"/>
<path d="M102.602 33.1891C97.7289 33.1891 94.0977 29.6852 94.0977 24.525C94.0977 19.3648 97.7289 15.8291 102.602 15.8291C107.444 15.8291 111.075 19.3648 111.075 24.525C111.075 29.6852 107.444 33.1891 102.602 33.1891ZM97.6971 24.525C97.6971 27.6466 99.6401 30.1949 102.602 30.1949C105.533 30.1949 107.476 27.6466 107.476 24.525C107.476 21.3715 105.533 19.0986 102.602 19.0986C99.6401 19.0986 97.6971 21.3715 97.6971 24.525Z" fill="#2E2E27"/>
</g>
</g>
<defs>
<clipPath id="clip0_1545_20633">
<rect width="112" height="44" fill="white"/>
</clipPath>
<clipPath id="clip1_1545_20633">
<rect width="112" height="24" fill="white" transform="translate(0 10)"/>
</clipPath>
</defs>
</svg>
