<svg width="109" height="25" viewBox="0 0 109 25" fill="none" xmlns="http://www.w3.org/2000/svg">
<g clip-path="url(#clip0_1545_19858)">
<g clip-path="url(#clip1_1545_19858)">
<g clip-path="url(#clip2_1545_19858)">
<path fill-rule="evenodd" clip-rule="evenodd" d="M6.61952 1.35171C6.41934 1.10021 6.03727 1.10021 5.8371 1.35171L0.108788 8.54882C-0.0362624 8.73106 -0.0362629 8.98932 0.108788 9.17156L6.22831 16.8602L12.2044 24.3687C12.4046 24.6202 12.7867 24.6202 12.9869 24.3687L18.7152 17.1716C18.8602 16.9893 18.8602 16.7311 18.7152 16.5488L12.5957 8.86019H24.2933C24.712 8.86019 24.9453 8.3764 24.6846 8.04882L19.3542 1.35171C19.154 1.10021 18.772 1.10021 18.5718 1.35171L12.5957 8.86019L6.61952 1.35171Z" fill="white"/>
<path d="M32.793 1.57617H36.823L42.806 19.5872H42.899L48.913 1.57617H52.943L45.069 23.6792L40.605 23.7102L32.793 1.57617Z" fill="white"/>
<path d="M66.5464 18.9671C65.6164 22.2221 62.8574 24.1441 59.0444 24.1441C54.2394 24.1441 50.9844 20.7031 50.9844 15.6501C50.9844 10.783 54.3944 7.24902 59.0444 7.24902C64.5314 7.24902 66.7634 11.4651 66.7944 16.0221C66.7944 16.1771 66.7944 16.4251 66.7634 16.7041H54.4254C54.7044 19.5251 56.5024 21.2611 59.0444 21.2611C60.8734 21.2611 62.4234 20.5481 62.9814 18.9671H66.5464ZM54.4564 14.1621H63.2604C63.0434 11.8681 61.7104 10.039 59.0444 10.039C56.5024 10.039 54.7974 11.6821 54.4564 14.1621Z" fill="white"/>
<path d="M77.4965 12.4881C77.3105 10.69 75.8845 9.97702 74.4275 9.97702C73.0015 9.97702 71.7925 10.783 71.7925 11.8991C71.7925 13.0151 72.7535 13.6661 74.3965 14.0691C75.1095 14.2551 75.8225 14.4101 76.5355 14.6271C79.1395 15.3091 81.1855 16.5801 81.1855 19.1221C81.1855 22.3151 78.0235 24.1441 74.6135 24.1441C71.3895 24.1441 68.1965 22.6561 67.8555 18.8121H71.3895C71.6995 20.5791 72.7845 21.3851 74.6445 21.3851C76.1635 21.3851 77.6515 20.7961 77.6515 19.3081C77.6515 18.0061 76.4115 17.5721 75.0785 17.2311C74.3035 17.0451 73.5285 16.8591 72.7845 16.6421C70.2115 15.9601 68.3205 14.5031 68.3205 12.0231C68.3205 9.10902 71.2035 7.24902 74.4895 7.24902C77.9305 7.24902 80.5655 9.01602 80.9375 12.4881H77.4965Z" fill="white"/>
<path d="M87.545 18.1924C87.545 19.9284 88.041 20.8584 89.591 20.8584H90.645V23.7414L88.909 23.7724C85.22 23.8034 84.011 21.6024 84.011 18.6264V10.4733H81.5V7.68335H84.011V4.02534L87.545 2.44434V7.68335H90.676V10.4733H87.545V18.1924Z" fill="white"/>
<path d="M99.8512 24.1441C95.1082 24.1441 91.5742 20.7341 91.5742 15.7121C91.5742 10.69 95.1082 7.24902 99.8512 7.24902C104.563 7.24902 108.097 10.69 108.097 15.7121C108.097 20.7341 104.563 24.1441 99.8512 24.1441ZM95.0772 15.7121C95.0772 18.7501 96.9682 21.2301 99.8512 21.2301C102.703 21.2301 104.594 18.7501 104.594 15.7121C104.594 12.6431 102.703 10.163 99.8512 10.163C96.9682 10.163 95.0772 12.6431 95.0772 15.7121Z" fill="white"/>
</g>
</g>
</g>
<defs>
<clipPath id="clip0_1545_19858">
<rect width="109" height="24" fill="white" transform="translate(0 0.860352)"/>
</clipPath>
<clipPath id="clip1_1545_19858">
<rect width="109" height="24" fill="white" transform="translate(0 0.860352)"/>
</clipPath>
<clipPath id="clip2_1545_19858">
<rect width="109" height="24" fill="white" transform="translate(0 0.860352)"/>
</clipPath>
</defs>
</svg>
