<svg width="92" height="15" viewBox="0 0 92 15" fill="none" xmlns="http://www.w3.org/2000/svg">
<path d="M7.23431 10.1016C6.78888 10.5971 6.30341 10.97 5.77789 11.2202C5.25238 11.4655 4.68433 11.5881 4.07373 11.5881C2.94763 11.5881 2.05426 11.2077 1.39362 10.447C0.858093 9.82635 0.590332 9.13318 0.590332 8.36743C0.590332 7.68677 0.808044 7.07367 1.24347 6.52814C1.6839 5.9776 2.33954 5.49463 3.21039 5.07922C2.7149 4.50867 2.38458 4.04572 2.21942 3.69037C2.05426 3.33502 1.97168 2.99219 1.97168 2.66187C1.97168 2.00122 2.22943 1.42816 2.74493 0.942688C3.26544 0.452209 3.91858 0.20697 4.70435 0.20697C5.45508 0.20697 6.06818 0.437195 6.54364 0.897644C7.02411 1.35809 7.26434 1.91113 7.26434 2.55676C7.26434 3.60278 6.57117 4.49615 5.18481 5.23688L7.15924 7.75183C7.38446 7.3114 7.55963 6.8009 7.68475 6.22034L9.08862 6.52063C8.84839 7.48157 8.52307 8.27234 8.11267 8.89294C8.61816 9.5636 9.19122 10.1266 9.83185 10.5821L8.92346 11.6556C8.37793 11.3053 7.81488 10.7873 7.23431 10.1016ZM4.48663 4.36603C5.0722 4.02069 5.45007 3.7179 5.62024 3.45764C5.79541 3.19739 5.883 2.90961 5.883 2.5943C5.883 2.21893 5.76288 1.91364 5.52264 1.67841C5.28741 1.43817 4.99213 1.31805 4.63678 1.31805C4.27142 1.31805 3.96613 1.43567 3.72089 1.6709C3.48065 1.90613 3.36053 2.19391 3.36053 2.53424C3.36053 2.70441 3.40308 2.88458 3.48816 3.07477C3.57825 3.25995 3.71088 3.45764 3.88605 3.66785L4.48663 4.36603ZM6.38599 9.03558L3.90857 5.96509C3.17786 6.40051 2.68488 6.80591 2.42963 7.18127C2.17438 7.55164 2.04675 7.91949 2.04675 8.28485C2.04675 8.73029 2.22443 9.19324 2.57977 9.67371C2.93512 10.1542 3.43811 10.3944 4.08875 10.3944C4.49414 10.3944 4.91205 10.2693 5.34247 10.019C5.77789 9.76379 6.12573 9.43597 6.38599 9.03558ZM15.7174 11.4004V3.42761H16.926V4.5462C17.1763 4.15582 17.5091 3.84302 17.9245 3.60779C18.3399 3.36755 18.8129 3.24744 19.3434 3.24744C19.934 3.24744 20.4169 3.37006 20.7923 3.6153C21.1727 3.86053 21.4404 4.20337 21.5956 4.6438C22.2262 3.71289 23.047 3.24744 24.058 3.24744C24.8488 3.24744 25.4569 3.46765 25.8823 3.90808C26.3077 4.34351 26.5204 5.01666 26.5204 5.92755V11.4004H25.1766V6.37799C25.1766 5.83746 25.1315 5.44958 25.0415 5.21436C24.9564 4.97412 24.7987 4.78143 24.5685 4.63629C24.3383 4.49115 24.068 4.41858 23.7577 4.41858C23.1972 4.41858 22.7317 4.60626 22.3613 4.98163C21.991 5.35199 21.8058 5.94757 21.8058 6.76837V11.4004H20.4545V6.22034C20.4545 5.61975 20.3444 5.16931 20.1242 4.86902C19.9039 4.56873 19.5436 4.41858 19.0431 4.41858C18.6627 4.41858 18.3099 4.51868 17.9846 4.71887C17.6643 4.91907 17.4315 5.21185 17.2864 5.59723C17.1412 5.9826 17.0687 6.53815 17.0687 7.26385V11.4004H15.7174ZM33.8474 10.4169C33.3469 10.8423 32.864 11.1426 32.3985 11.3178C31.9381 11.493 31.4426 11.5806 30.9121 11.5806C30.0362 11.5806 29.3631 11.3679 28.8926 10.9424C28.4221 10.512 28.1869 9.96399 28.1869 9.29834C28.1869 8.90796 28.2745 8.55261 28.4497 8.2323C28.6298 7.90698 28.8626 7.64673 29.1478 7.45154C29.4381 7.25635 29.7634 7.1087 30.1238 7.00861C30.3891 6.93854 30.7894 6.87097 31.325 6.80591C32.416 6.67578 33.2193 6.52063 33.7348 6.34045C33.7398 6.15527 33.7423 6.03766 33.7423 5.98761C33.7423 5.43707 33.6147 5.04919 33.3595 4.82397C33.0141 4.51868 32.5011 4.36603 31.8204 4.36603C31.1848 4.36603 30.7144 4.47864 30.4091 4.70386C30.1088 4.92407 29.8861 5.31696 29.7409 5.88251L28.4196 5.70233C28.5397 5.13678 28.7374 4.68134 29.0127 4.336C29.288 3.98566 29.6859 3.7179 30.2064 3.53271C30.7269 3.34253 31.33 3.24744 32.0156 3.24744C32.6963 3.24744 33.2493 3.32751 33.6748 3.48767C34.1002 3.64783 34.413 3.85052 34.6132 4.09576C34.8134 4.336 34.9535 4.6413 35.0336 5.01166C35.0786 5.24188 35.1012 5.65729 35.1012 6.25787V8.05963C35.1012 9.31586 35.1287 10.1116 35.1837 10.447C35.2438 10.7773 35.3589 11.0951 35.5291 11.4004H34.1177C33.9776 11.1201 33.8875 10.7923 33.8474 10.4169ZM33.7348 7.39899C33.2443 7.59918 32.5086 7.76935 31.5277 7.90948C30.9721 7.98956 30.5792 8.07965 30.349 8.17975C30.1188 8.27985 29.9411 8.42749 29.816 8.62268C29.6909 8.81287 29.6283 9.02557 29.6283 9.2608C29.6283 9.62115 29.7634 9.92145 30.0337 10.1617C30.309 10.4019 30.7094 10.522 31.2349 10.522C31.7554 10.522 32.2183 10.4094 32.6237 10.1842C33.0291 9.95398 33.3269 9.64117 33.5171 9.24579C33.6622 8.94049 33.7348 8.49005 33.7348 7.89447V7.39899ZM37.3232 11.4004V3.42761H38.5394V4.56122C39.125 3.68536 39.9708 3.24744 41.0769 3.24744C41.5573 3.24744 41.9978 3.33502 42.3982 3.51019C42.8035 3.68036 43.1063 3.90558 43.3065 4.18585C43.5067 4.46613 43.6469 4.79895 43.7269 5.18433C43.777 5.43457 43.802 5.8725 43.802 6.49811V11.4004H42.4507V6.55066C42.4507 6.00012 42.3982 5.58972 42.293 5.31946C42.1879 5.04419 42.0003 4.82648 41.73 4.66632C41.4647 4.50116 41.1519 4.41858 40.7916 4.41858C40.216 4.41858 39.718 4.60126 39.2976 4.96661C38.8822 5.33197 38.6745 6.02515 38.6745 7.04614V11.4004H37.3232ZM45.9415 14.4709L45.7913 13.2021C46.0866 13.2822 46.3444 13.3223 46.5646 13.3223C46.8649 13.3223 47.1051 13.2722 47.2853 13.1721C47.4655 13.072 47.6131 12.9319 47.7282 12.7517C47.8133 12.6166 47.951 12.2812 48.1411 11.7457C48.1662 11.6707 48.2062 11.5605 48.2613 11.4154L45.2358 3.42761H46.6922L48.3513 8.04462C48.5666 8.63019 48.7592 9.24579 48.9294 9.89142C49.0846 9.27081 49.2697 8.66522 49.4849 8.07465L51.1891 3.42761H52.5404L49.5075 11.5355C49.1822 12.4114 48.9294 13.0145 48.7492 13.3448C48.509 13.7902 48.2337 14.1155 47.9234 14.3207C47.6131 14.5309 47.2428 14.636 46.8123 14.636C46.5521 14.636 46.2618 14.581 45.9415 14.4709ZM58.2082 11.4004V3.42761H59.4169V4.5462C59.6671 4.15582 60 3.84302 60.4154 3.60779C60.8308 3.36755 61.3037 3.24744 61.8343 3.24744C62.4248 3.24744 62.9078 3.37006 63.2832 3.6153C63.6635 3.86053 63.9313 4.20337 64.0865 4.6438C64.7171 3.71289 65.5379 3.24744 66.5489 3.24744C67.3396 3.24744 67.9477 3.46765 68.3731 3.90808C68.7986 4.34351 69.0113 5.01666 69.0113 5.92755V11.4004H67.6675V6.37799C67.6675 5.83746 67.6224 5.44958 67.5323 5.21436C67.4472 4.97412 67.2896 4.78143 67.0594 4.63629C66.8291 4.49115 66.5589 4.41858 66.2486 4.41858C65.688 4.41858 65.2226 4.60626 64.8522 4.98163C64.4818 5.35199 64.2967 5.94757 64.2967 6.76837V11.4004H62.9453V6.22034C62.9453 5.61975 62.8352 5.16931 62.615 4.86902C62.3948 4.56873 62.0345 4.41858 61.534 4.41858C61.1536 4.41858 60.8008 4.51868 60.4754 4.71887C60.1551 4.91907 59.9224 5.21185 59.7773 5.59723C59.6321 5.9826 59.5595 6.53815 59.5595 7.26385V11.4004H58.2082ZM70.6327 7.414C70.6327 5.93756 71.0431 4.84399 71.8639 4.1333C72.5496 3.54272 73.3854 3.24744 74.3714 3.24744C75.4674 3.24744 76.3633 3.60779 77.059 4.32849C77.7547 5.04419 78.1025 6.03516 78.1025 7.30139C78.1025 8.32739 77.9474 9.13568 77.6371 9.72626C77.3318 10.3118 76.8838 10.7673 76.2933 11.0926C75.7077 11.4179 75.0671 11.5806 74.3714 11.5806C73.2553 11.5806 72.3519 11.2227 71.6612 10.507C70.9756 9.79132 70.6327 8.76031 70.6327 7.414ZM72.0216 7.414C72.0216 8.435 72.2443 9.20074 72.6897 9.71124C73.1352 10.2167 73.6957 10.4695 74.3714 10.4695C75.042 10.4695 75.6001 10.2142 76.0455 9.70374C76.4909 9.19324 76.7137 8.41498 76.7137 7.36896C76.7137 6.383 76.4884 5.63727 76.038 5.13177C75.5926 4.62128 75.037 4.36603 74.3714 4.36603C73.6957 4.36603 73.1352 4.61877 72.6897 5.12427C72.2443 5.62976 72.0216 6.39301 72.0216 7.414ZM79.7991 11.4004V3.42761H81.0152V4.63629C81.3255 4.07074 81.6108 3.69788 81.8711 3.5177C82.1363 3.33752 82.4266 3.24744 82.7419 3.24744C83.1974 3.24744 83.6603 3.39258 84.1308 3.68286L83.6653 4.93658C83.335 4.74139 83.0047 4.6438 82.6744 4.6438C82.3791 4.6438 82.1138 4.73389 81.8786 4.91406C81.6434 5.08923 81.4757 5.33447 81.3756 5.64978C81.2254 6.13025 81.1504 6.65576 81.1504 7.22632V11.4004H79.7991ZM90.5119 8.83289L91.9082 9.00555C91.688 9.82135 91.2801 10.4545 90.6846 10.9049C90.089 11.3553 89.3282 11.5806 88.4023 11.5806C87.2362 11.5806 86.3103 11.2227 85.6246 10.507C84.944 9.78632 84.6036 8.77783 84.6036 7.48157C84.6036 6.14026 84.949 5.09924 85.6396 4.35852C86.3303 3.6178 87.2262 3.24744 88.3273 3.24744C89.3933 3.24744 90.2641 3.61029 90.9398 4.336C91.6155 5.06171 91.9533 6.0827 91.9533 7.39899C91.9533 7.47906 91.9508 7.59918 91.9458 7.75934H86C86.05 8.63519 86.2978 9.30585 86.7432 9.7713C87.1886 10.2368 87.7442 10.4695 88.4098 10.4695C88.9053 10.4695 89.3282 10.3394 89.6786 10.0791C90.0289 9.81885 90.3067 9.40344 90.5119 8.83289ZM86.0751 6.64825H90.5269C90.4668 5.9776 90.2967 5.47461 90.0164 5.13928C89.586 4.61877 89.0279 4.35852 88.3423 4.35852C87.7217 4.35852 87.1987 4.56622 86.7732 4.98163C86.3528 5.39703 86.1201 5.95258 86.0751 6.64825Z" fill="#565656"/>
</svg>
