<svg width="129" height="18" viewBox="0 0 129 18" fill="none" xmlns="http://www.w3.org/2000/svg">
<g clip-path="url(#clip0_1545_20393)">
<g clip-path="url(#clip1_1545_20393)">
<g clip-path="url(#clip2_1545_20393)">
<mask id="mask0_1545_20393" style="mask-type:luminance" maskUnits="userSpaceOnUse" x="0" y="0" width="128" height="18">
<path d="M127.91 0H0.289062V17.77H127.91V0Z" fill="white"/>
</mask>
<g mask="url(#mask0_1545_20393)">
<path d="M5.40465 8.88477L10.5203 17.7698H0.289062L5.40465 8.88477Z" fill="#4C4C4C"/>
<path d="M5.40465 0L10.5203 8.885H0.289062L5.40465 0Z" fill="#4C4C4C"/>
<path d="M23.5493 4.84668C24.7233 4.84668 25.757 5.03039 26.6503 5.39783C27.5564 5.75259 28.3412 6.27841 29.0048 6.97528L27.416 9.08486C26.8673 8.51469 26.2739 8.09024 25.6358 7.8115C25.0105 7.52007 24.2958 7.37439 23.4918 7.37439C23.0197 7.37439 22.6368 7.42507 22.3433 7.52643C22.0498 7.62779 21.8392 7.76714 21.7117 7.94452C21.584 8.1219 21.5202 8.32462 21.5202 8.55272C21.5202 8.81877 21.6415 9.04683 21.8839 9.2369C22.1392 9.41428 22.5475 9.56632 23.109 9.69302L25.2338 10.1682C26.4972 10.4596 27.4224 10.884 28.0094 11.4415C28.5964 11.999 28.89 12.7402 28.89 13.6651C28.89 14.552 28.6602 15.3059 28.2008 15.9268C27.7414 16.535 27.1097 16.9974 26.3058 17.3142C25.5018 17.6183 24.583 17.7703 23.5493 17.7703C22.707 17.7703 21.9031 17.6816 21.1374 17.5042C20.3717 17.3142 19.6826 17.0481 19.07 16.706C18.4575 16.3639 17.9406 15.9711 17.5195 15.5277L19.1083 13.3421C19.4274 13.7095 19.8166 14.0389 20.276 14.3303C20.7482 14.6091 21.2586 14.8308 21.8074 14.9955C22.3689 15.1602 22.9368 15.2426 23.511 15.2426C23.9576 15.2426 24.3277 15.1982 24.6212 15.1096C24.9275 15.0209 25.1509 14.8878 25.2912 14.7105C25.4316 14.5331 25.5018 14.324 25.5018 14.0833C25.5018 13.8172 25.4061 13.5955 25.2147 13.4181C25.0232 13.228 24.6595 13.0696 24.1235 12.9429L21.7882 12.4298C21.0736 12.2651 20.4355 12.0497 19.874 11.7836C19.3252 11.5049 18.8914 11.1374 18.5723 10.6813C18.2533 10.2125 18.0938 9.62969 18.0938 8.93282C18.0938 8.14724 18.3107 7.45041 18.7446 6.84222C19.1785 6.22137 19.8038 5.73358 20.6205 5.37882C21.4373 5.02406 22.4135 4.84668 23.5493 4.84668ZM41.9821 5.03671L37.5222 12.9999V17.5802H34.2297V12.9999L29.7696 5.03671H33.1769L34.9571 8.4767L35.8952 10.5673L36.8523 8.4767L38.6325 5.03671H41.9821ZM55.1984 5.03671V17.5802H51.542L47.618 10.7953L46.6609 8.93282H46.6418L46.7182 11.2514V17.5802H43.8085V5.03671H47.4649L51.3888 11.8216L52.3459 13.6842H52.3651L52.2887 11.3655V5.03671H55.1984ZM69.0039 5.03671V7.56442H64.8883V17.5802H61.5959V7.56442H57.4612V5.03671H69.0039ZM82.6775 5.03671V17.5802H79.3851V5.03671H82.6775ZM74.5613 5.03671V17.5802H71.2688V5.03671H74.5613ZM81.1465 9.9971V12.5248H72.8767V9.9971H81.1465ZM85.8584 17.5802V5.03671H95.6976V7.56442H89.1508V10.1111H94.3574V12.4868H89.1508V15.0525H95.9464V17.5802H85.8584ZM103.256 4.84668C104.43 4.84668 105.464 5.03039 106.357 5.39783C107.263 5.75259 108.048 6.27841 108.712 6.97528L107.123 9.08486C106.574 8.51469 105.981 8.09024 105.343 7.8115C104.717 7.52007 104.003 7.37439 103.199 7.37439C102.727 7.37439 102.344 7.42507 102.05 7.52643C101.757 7.62779 101.546 7.76714 101.418 7.94452C101.291 8.1219 101.227 8.32462 101.227 8.55272C101.227 8.81877 101.348 9.04683 101.591 9.2369C101.846 9.41428 102.254 9.56632 102.816 9.69302L104.941 10.1682C106.204 10.4596 107.129 10.884 107.717 11.4415C108.303 11.999 108.597 12.7402 108.597 13.6651C108.597 14.552 108.367 15.3059 107.908 15.9268C107.449 16.535 106.817 16.9974 106.013 17.3142C105.209 17.6183 104.29 17.7703 103.256 17.7703C102.414 17.7703 101.61 17.6816 100.845 17.5042C100.079 17.3142 99.3895 17.0481 98.7772 16.706C98.1645 16.3639 97.6477 15.9711 97.2265 15.5277L98.8152 13.3421C99.1343 13.7095 99.5235 14.0389 99.983 14.3303C100.455 14.6091 100.966 14.8308 101.514 14.9955C102.076 15.1602 102.644 15.2426 103.218 15.2426C103.665 15.2426 104.035 15.1982 104.328 15.1096C104.635 15.0209 104.858 14.8878 104.998 14.7105C105.138 14.5331 105.209 14.324 105.209 14.0833C105.209 13.8172 105.113 13.5955 104.922 13.4181C104.73 13.228 104.367 13.0696 103.831 12.9429L101.495 12.4298C100.781 12.2651 100.143 12.0497 99.5811 11.7836C99.0323 11.5049 98.5984 11.1374 98.2792 10.6813C97.9604 10.2125 97.8009 9.62969 97.8009 8.93282C97.8009 8.14724 98.0177 7.45041 98.4516 6.84222C98.8856 6.22137 99.5107 5.73358 100.327 5.37882C101.144 5.02406 102.12 4.84668 103.256 4.84668ZM114.33 5.03671V17.5802H111.037V5.03671H114.33ZM122.454 4.84668C123.627 4.84668 124.661 5.03039 125.554 5.39783C126.46 5.75259 127.245 6.27841 127.909 6.97528L126.32 9.08486C125.771 8.51469 125.178 8.09024 124.54 7.8115C123.915 7.52007 123.2 7.37439 122.396 7.37439C121.924 7.37439 121.541 7.42507 121.247 7.52643C120.954 7.62779 120.743 7.76714 120.616 7.94452C120.488 8.1219 120.424 8.32462 120.424 8.55272C120.424 8.81877 120.546 9.04683 120.788 9.2369C121.043 9.41428 121.452 9.56632 122.013 9.69302L124.138 10.1682C125.401 10.4596 126.326 10.884 126.913 11.4415C127.501 11.999 127.794 12.7402 127.794 13.6651C127.794 14.552 127.564 15.3059 127.105 15.9268C126.646 16.535 126.014 16.9974 125.21 17.3142C124.406 17.6183 123.487 17.7703 122.454 17.7703C121.611 17.7703 120.807 17.6816 120.041 17.5042C119.276 17.3142 118.587 17.0481 117.974 16.706C117.362 16.3639 116.845 15.9711 116.423 15.5277L118.012 13.3421C118.332 13.7095 118.721 14.0389 119.18 14.3303C119.652 14.6091 120.163 14.8308 120.711 14.9955C121.273 15.1602 121.841 15.2426 122.415 15.2426C122.862 15.2426 123.232 15.1982 123.525 15.1096C123.832 15.0209 124.055 14.8878 124.195 14.7105C124.336 14.5331 124.406 14.324 124.406 14.0833C124.406 13.8172 124.31 13.5955 124.119 13.4181C123.927 13.228 123.564 13.0696 123.028 12.9429L120.692 12.4298C119.978 12.2651 119.34 12.0497 118.778 11.7836C118.229 11.5049 117.796 11.1374 117.477 10.6813C117.157 10.2125 116.998 9.62969 116.998 8.93282C116.998 8.14724 117.215 7.45041 117.649 6.84222C118.082 6.22137 118.708 5.73358 119.525 5.37882C120.341 5.02406 121.318 4.84668 122.454 4.84668Z" fill="#4C4C4C"/>
</g>
</g>
</g>
</g>
<defs>
<clipPath id="clip0_1545_20393">
<rect width="128" height="17.77" fill="white" transform="translate(0.261719)"/>
</clipPath>
<clipPath id="clip1_1545_20393">
<rect width="128" height="17.77" fill="white" transform="translate(0.261719)"/>
</clipPath>
<clipPath id="clip2_1545_20393">
<rect width="127.944" height="17.77" fill="white" transform="translate(0.289062)"/>
</clipPath>
</defs>
</svg>
